<?xml version="1.0" encoding="utf-8"?>
<!-- Generator: Adobe Illustrator 22.0.1, SVG Export Plug-In . SVG Version: 6.00 Build 0)  -->
<svg version="1.1" id="Layer_1" xmlns="http://www.w3.org/2000/svg" xmlns:xlink="http://www.w3.org/1999/xlink" x="0px" y="0px"
	 viewBox="0 0 1128 181" style="enable-background:new 0 0 1128 181;" xml:space="preserve">
<style type="text/css">
	.st0{fill:#65789D;}
	.st1{fill:#FFEFEF;}
	.st2{fill:#574292;}
	.st3{fill:#FFFFFF;stroke:#FFFFFF;stroke-width:3;}
</style>
<path class="st0" d="M1128,93.9c0,47.2-39.9,84.5-87,81.6c-358.8-22.7-591-34.6-950.5-3.1C42.1,176.7,0,138.8,0,90.1l0,0
	C0,41.8,41.6,3.9,89.8,8.3c379.6,34.2,613,43.7,945,3.9C1084.1,6.2,1128,44.3,1128,93.9L1128,93.9z"/>
<path class="st1" d="M89.1,99.3h-5.2v6.7h-5.3v-6.7H62.4v-3.8l14.5-18.9h5.8L69.1,94.7h9.6v-5.9h5.1v5.9h5.2V99.3z M95.5,106.3
	c-1,0-1.8-0.3-2.4-1c-0.7-0.7-1-1.5-1-2.5c0-1,0.3-1.9,1-2.5c0.7-0.6,1.5-1,2.5-1c1,0,1.8,0.3,2.4,1c0.7,0.6,1,1.5,1,2.5
	c0,1-0.3,1.8-1,2.5C97.2,106,96.4,106.3,95.5,106.3z M143,76.6L130.2,106h-5.4L112,76.6h5.9l9.8,22.7l9.9-22.7H143z M165,94.9
	c0,0.4,0,0.9-0.1,1.6h-17.6c0.3,1.7,1.1,3,2.4,3.9c1.3,1,2.9,1.4,4.9,1.4c2.5,0,4.5-0.8,6.1-2.4l2.8,3.2c-1,1.2-2.3,2.1-3.8,2.7
	c-1.5,0.6-3.3,0.9-5.2,0.9c-2.5,0-4.6-0.5-6.5-1.5c-1.9-1-3.3-2.3-4.4-4.1c-1-1.8-1.5-3.8-1.5-6c0-2.2,0.5-4.1,1.5-5.9
	c1-1.8,2.4-3.1,4.2-4.1c1.8-1,3.8-1.5,6-1.5c2.2,0,4.1,0.5,5.8,1.5c1.7,1,3.1,2.3,4,4.1C164.5,90.6,165,92.6,165,94.9z M153.7,87.5
	c-1.7,0-3.1,0.5-4.3,1.5c-1.1,1-1.8,2.3-2.1,3.9H160c-0.2-1.6-0.9-2.9-2.1-3.9C156.8,88,155.4,87.5,153.7,87.5z M175.1,86.8
	c1.5-2.4,4.2-3.5,8-3.5v5c-0.4-0.1-0.9-0.1-1.2-0.1c-2,0-3.6,0.6-4.8,1.8c-1.1,1.2-1.7,2.9-1.7,5.1V106h-5.3V83.6h5V86.8z
	 M187.5,83.6h5.3V106h-5.3V83.6z M190.1,79.9c-1,0-1.8-0.3-2.4-0.9c-0.6-0.6-1-1.4-1-2.3c0-0.9,0.3-1.6,1-2.2
	c0.6-0.6,1.4-0.9,2.4-0.9c1,0,1.8,0.3,2.4,0.9c0.6,0.6,1,1.3,1,2.1c0,0.9-0.3,1.7-1,2.4C191.9,79.6,191.1,79.9,190.1,79.9z
	 M208.7,78.8c-2.2,0-3.3,1.2-3.3,3.6v1.3h6.2v4.2h-6V106h-5.3V87.9h-3.7v-4.2h3.7v-1.4c0-2.4,0.7-4.3,2.1-5.7
	c1.4-1.4,3.4-2.1,5.9-2.1c2,0,3.6,0.4,4.7,1.2l-1.5,3.9C210.7,79.1,209.8,78.8,208.7,78.8z M218.5,83.6h5.3V106h-5.3V83.6z
	 M221.1,79.9c-1,0-1.8-0.3-2.4-0.9c-0.6-0.6-1-1.4-1-2.3c0-0.9,0.3-1.6,1-2.2c0.6-0.6,1.4-0.9,2.4-0.9s1.8,0.3,2.4,0.9
	c0.6,0.6,1,1.3,1,2.1c0,0.9-0.3,1.7-1,2.4C222.9,79.6,222.1,79.9,221.1,79.9z M239.8,96.4l-3.9,3.7v5.9h-5.3V74.8h5.3v18.8
	l10.9-10.1h6.3l-9.4,9.4l10.2,13h-6.4L239.8,96.4z M265.5,83.3c3.3,0,5.8,0.8,7.6,2.4c1.8,1.6,2.6,3.9,2.6,7.1V106h-5v-2.7
	c-0.6,1-1.6,1.7-2.8,2.3c-1.2,0.5-2.6,0.8-4.3,0.8c-1.7,0-3.1-0.3-4.4-0.8c-1.3-0.6-2.2-1.4-2.9-2.4c-0.7-1-1-2.2-1-3.5
	c0-2,0.7-3.6,2.2-4.8c1.5-1.2,3.9-1.8,7.1-1.8h5.8v-0.3c0-1.6-0.5-2.8-1.4-3.6c-0.9-0.8-2.3-1.3-4.2-1.3c-1.3,0-2.5,0.2-3.7,0.6
	c-1.2,0.4-2.2,0.9-3.1,1.6l-2.1-3.8c1.2-0.9,2.6-1.6,4.2-2.1C261.9,83.6,263.6,83.3,265.5,83.3z M264.8,102.5c1.3,0,2.5-0.3,3.5-0.9
	c1-0.6,1.8-1.5,2.2-2.6v-2.6H265c-3,0-4.5,1-4.5,3c0,1,0.4,1.7,1.1,2.3C262.4,102.2,263.4,102.5,264.8,102.5z M289.4,106.3
	c-1.8,0-3.6-0.2-5.3-0.7c-1.7-0.5-3.1-1.1-4.2-1.8l2-4c1,0.7,2.2,1.2,3.6,1.6c1.4,0.4,2.8,0.6,4.2,0.6c3.1,0,4.7-0.8,4.7-2.5
	c0-0.8-0.4-1.3-1.2-1.6c-0.8-0.3-2.1-0.6-3.8-0.9c-1.8-0.3-3.4-0.6-4.5-1c-1.1-0.4-2.2-1-3-1.9c-0.8-0.9-1.3-2.2-1.3-3.8
	c0-2.1,0.9-3.8,2.6-5.1c1.8-1.3,4.2-1.9,7.2-1.9c1.5,0,3.1,0.2,4.6,0.5c1.5,0.3,2.8,0.8,3.8,1.4l-2,4c-1.9-1.1-4-1.7-6.4-1.7
	c-1.5,0-2.7,0.2-3.5,0.7c-0.8,0.4-1.2,1-1.2,1.8c0,0.8,0.4,1.4,1.3,1.8c0.9,0.3,2.2,0.7,4,1c1.8,0.3,3.3,0.6,4.4,1s2.1,1,2.9,1.8
	c0.8,0.9,1.3,2.1,1.3,3.7c0,2.1-0.9,3.8-2.7,5S292.5,106.3,289.4,106.3z M304.1,83.6h5.3V106h-5.3V83.6z M306.7,79.9
	c-1,0-1.8-0.3-2.4-0.9c-0.6-0.6-1-1.4-1-2.3c0-0.9,0.3-1.6,1-2.2c0.6-0.6,1.4-0.9,2.4-0.9s1.8,0.3,2.4,0.9c0.6,0.6,1,1.3,1,2.1
	c0,0.9-0.3,1.7-1,2.4C308.5,79.6,307.7,79.9,306.7,79.9z M340.4,76.6c2.5,0,4.8,0.4,6.6,1.3c1.9,0.8,3.4,2,4.4,3.6s1.5,3.4,1.5,5.6
	c0,2.1-0.5,4-1.5,5.6c-1,1.6-2.5,2.8-4.4,3.6c-1.9,0.8-4.1,1.3-6.6,1.3h-6.6v8.5h-5.5V76.6H340.4z M340.2,92.9
	c2.4,0,4.2-0.5,5.4-1.5c1.2-1,1.8-2.5,1.8-4.3s-0.6-3.3-1.8-4.3c-1.2-1-3-1.5-5.4-1.5h-6.4v11.7H340.2z M378.9,94.9
	c0,0.4,0,0.9-0.1,1.6h-17.6c0.3,1.7,1.1,3,2.4,3.9c1.3,1,2.9,1.4,4.9,1.4c2.5,0,4.5-0.8,6.1-2.4l2.8,3.2c-1,1.2-2.3,2.1-3.8,2.7
	c-1.5,0.6-3.3,0.9-5.2,0.9c-2.5,0-4.6-0.5-6.5-1.5c-1.9-1-3.3-2.3-4.4-4.1c-1-1.8-1.5-3.8-1.5-6c0-2.2,0.5-4.1,1.5-5.9
	c1-1.8,2.4-3.1,4.2-4.1c1.8-1,3.8-1.5,6-1.5c2.2,0,4.1,0.5,5.8,1.5c1.7,1,3.1,2.3,4,4.1C378.4,90.6,378.9,92.6,378.9,94.9z
	 M367.5,87.5c-1.7,0-3.1,0.5-4.3,1.5c-1.1,1-1.8,2.3-2.1,3.9h12.7c-0.2-1.6-0.9-2.9-2.1-3.9C370.7,88,369.2,87.5,367.5,87.5z
	 M412.2,83.3c2.8,0,5.1,0.8,6.7,2.5c1.7,1.6,2.5,4.1,2.5,7.4V106h-5.3V93.8c0-2-0.4-3.4-1.3-4.4c-0.9-1-2.1-1.5-3.7-1.5
	c-1.8,0-3.2,0.6-4.2,1.8c-1.1,1.1-1.6,2.8-1.6,5V106H400V93.8c0-2-0.4-3.4-1.3-4.4c-0.9-1-2.1-1.5-3.7-1.5c-1.8,0-3.2,0.6-4.3,1.7
	c-1,1.1-1.6,2.8-1.6,5V106h-5.3V83.6h5v2.9c0.8-1,1.9-1.8,3.1-2.3c1.3-0.5,2.7-0.8,4.2-0.8c1.7,0,3.2,0.3,4.5,1
	c1.3,0.6,2.4,1.5,3.1,2.8c0.9-1.2,2.1-2.1,3.6-2.7C408.8,83.7,410.5,83.3,412.2,83.3z M440.6,83.3c2.2,0,4.1,0.5,5.8,1.4
	c1.7,1,3.1,2.3,4.1,4s1.5,3.7,1.5,6c0,2.3-0.5,4.3-1.5,6c-1,1.7-2.3,3.1-4.1,4c-1.7,1-3.7,1.4-5.8,1.4c-1.5,0-3-0.3-4.2-0.8
	c-1.3-0.5-2.3-1.3-3.2-2.4v2.9h-5V74.8h5.3v11.5c0.9-1,1.9-1.7,3.1-2.2C437.8,83.6,439.1,83.3,440.6,83.3z M440,101.8
	c1.9,0,3.5-0.6,4.7-1.9c1.3-1.3,1.9-3,1.9-5.1c0-2.1-0.6-3.8-1.9-5.1c-1.2-1.3-2.8-1.9-4.7-1.9c-1.3,0-2.4,0.3-3.4,0.9
	c-1,0.6-1.8,1.4-2.4,2.4c-0.6,1.1-0.9,2.3-0.9,3.7c0,1.4,0.3,2.6,0.9,3.7c0.6,1.1,1.4,1.9,2.4,2.5
	C437.6,101.5,438.7,101.8,440,101.8z M465.2,83.3c3.3,0,5.8,0.8,7.6,2.4c1.8,1.6,2.6,3.9,2.6,7.1V106h-5v-2.7
	c-0.6,1-1.6,1.7-2.8,2.3c-1.2,0.5-2.6,0.8-4.3,0.8s-3.1-0.3-4.4-0.8c-1.3-0.6-2.2-1.4-2.9-2.4c-0.7-1-1-2.2-1-3.5
	c0-2,0.7-3.6,2.2-4.8c1.5-1.2,3.9-1.8,7.1-1.8h5.8v-0.3c0-1.6-0.5-2.8-1.4-3.6c-0.9-0.8-2.3-1.3-4.2-1.3c-1.3,0-2.5,0.2-3.7,0.6
	c-1.2,0.4-2.2,0.9-3.1,1.6l-2.1-3.8c1.2-0.9,2.6-1.6,4.2-2.1C461.6,83.6,463.4,83.3,465.2,83.3z M464.5,102.5c1.3,0,2.5-0.3,3.5-0.9
	c1-0.6,1.8-1.5,2.2-2.6v-2.6h-5.4c-3,0-4.5,1-4.5,3c0,1,0.4,1.7,1.1,2.3C462.1,102.2,463.1,102.5,464.5,102.5z M502.7,83.6
	l-10.5,24.2c-1,2.4-2.2,4.1-3.6,5.1c-1.4,1-3.1,1.5-5.1,1.5c-1.1,0-2.2-0.2-3.3-0.5c-1.1-0.4-2-0.9-2.7-1.5l2.1-3.9
	c0.5,0.5,1.1,0.9,1.8,1.1c0.7,0.3,1.4,0.4,2.1,0.4c0.9,0,1.7-0.2,2.3-0.7c0.6-0.5,1.2-1.3,1.7-2.4l0.4-0.9l-9.8-22.5h5.5l7.1,16.6
	l7.1-16.6H502.7z M513.9,83.3c3.3,0,5.8,0.8,7.6,2.4c1.8,1.6,2.6,3.9,2.6,7.1V106h-5v-2.7c-0.6,1-1.6,1.7-2.8,2.3
	c-1.2,0.5-2.6,0.8-4.3,0.8s-3.1-0.3-4.4-0.8c-1.3-0.6-2.2-1.4-2.9-2.4c-0.7-1-1-2.2-1-3.5c0-2,0.7-3.6,2.2-4.8
	c1.5-1.2,3.9-1.8,7.1-1.8h5.8v-0.3c0-1.6-0.5-2.8-1.4-3.6c-0.9-0.8-2.3-1.3-4.2-1.3c-1.3,0-2.5,0.2-3.7,0.6
	c-1.2,0.4-2.2,0.9-3.1,1.6l-2.1-3.8c1.2-0.9,2.6-1.6,4.2-2.1C510.3,83.6,512,83.3,513.9,83.3z M513.2,102.5c1.3,0,2.5-0.3,3.5-0.9
	c1-0.6,1.8-1.5,2.2-2.6v-2.6h-5.4c-3,0-4.5,1-4.5,3c0,1,0.4,1.7,1.1,2.3C510.8,102.2,511.8,102.5,513.2,102.5z M535.8,86.8
	c1.5-2.4,4.2-3.5,8-3.5v5c-0.4-0.1-0.9-0.1-1.2-0.1c-2,0-3.6,0.6-4.8,1.8c-1.1,1.2-1.7,2.9-1.7,5.1V106h-5.3V83.6h5V86.8z
	 M556.7,83.3c3.3,0,5.8,0.8,7.6,2.4c1.8,1.6,2.6,3.9,2.6,7.1V106h-5v-2.7c-0.6,1-1.6,1.7-2.8,2.3c-1.2,0.5-2.6,0.8-4.3,0.8
	s-3.2-0.3-4.4-0.8c-1.3-0.6-2.2-1.4-2.9-2.4c-0.7-1-1-2.2-1-3.5c0-2,0.7-3.6,2.2-4.8c1.5-1.2,3.9-1.8,7.1-1.8h5.8v-0.3
	c0-1.6-0.5-2.8-1.4-3.6c-0.9-0.8-2.3-1.3-4.2-1.3c-1.3,0-2.5,0.2-3.7,0.6c-1.2,0.4-2.2,0.9-3.1,1.6l-2.1-3.8
	c1.2-0.9,2.6-1.6,4.2-2.1C553.1,83.6,554.9,83.3,556.7,83.3z M556,102.5c1.3,0,2.5-0.3,3.5-0.9c1-0.6,1.8-1.5,2.2-2.6v-2.6h-5.4
	c-3,0-4.5,1-4.5,3c0,1,0.4,1.7,1.1,2.3C553.6,102.2,554.7,102.5,556,102.5z M586.4,83.3c2.8,0,5.1,0.8,6.8,2.5
	c1.7,1.7,2.6,4.1,2.6,7.4V106h-5.3V93.8c0-2-0.5-3.4-1.4-4.4c-0.9-1-2.2-1.5-3.9-1.5c-1.9,0-3.5,0.6-4.6,1.8c-1.1,1.1-1.7,2.8-1.7,5
	V106h-5.3V83.6h5v2.9c0.9-1,2-1.8,3.3-2.4C583.2,83.6,584.7,83.3,586.4,83.3z"/>
<g>
	<circle class="st2" cx="1012.4" cy="96.4" r="44"/>
</g>
<g>
	<path class="st3" d="M988.3,83.8c0.7-0.7,1.7-0.8,2.5-0.2l0.2,0.2l15.4,15.7l15.4-15.7c0.7-0.7,1.7-0.8,2.5-0.2l0.2,0.2
		c0.7,0.7,0.7,1.8,0.2,2.6l-0.2,0.2l-16.7,17.1c-0.7,0.7-1.7,0.8-2.5,0.2l-0.2-0.2l-16.7-17.1C987.5,85.9,987.5,84.6,988.3,83.8z"/>
</g>
</svg>
