<?xml version="1.0" encoding="utf-8"?>
<!-- Generator: Adobe Illustrator 22.0.1, SVG Export Plug-In . SVG Version: 6.00 Build 0)  -->
<svg version="1.1" id="Layer_1" xmlns="http://www.w3.org/2000/svg" xmlns:xlink="http://www.w3.org/1999/xlink" x="0px" y="0px"
	 viewBox="0 0 1128 181" style="enable-background:new 0 0 1128 181;" xml:space="preserve">
<style type="text/css">
	.st0{fill:#65789D;}
	.st1{fill:#FFEFEF;}
	.st2{fill:#574292;}
	.st3{fill:#FFFFFF;stroke:#FFFFFF;stroke-width:3;}
</style>
<path class="st0" d="M1128,93.9c0,47.2-39.9,84.5-87,81.6c-358.8-22.7-591-34.6-950.5-3.1C42.1,176.7,0,138.8,0,90.1l0,0
	C0,41.8,41.6,3.9,89.8,8.3c379.6,34.2,613,43.7,945,3.9C1084.1,6.2,1128,44.3,1128,93.9L1128,93.9z"/>
<path class="st1" d="M73,76.6V106h-5.5V81.2h-6.2v-4.6H73z M82.1,106.3c-1,0-1.8-0.3-2.4-1c-0.7-0.7-1-1.5-1-2.5c0-1,0.3-1.9,1-2.5
	c0.7-0.6,1.5-1,2.5-1c1,0,1.8,0.3,2.4,1c0.7,0.6,1,1.5,1,2.5c0,1-0.3,1.8-1,2.5C83.9,106,83.1,106.3,82.1,106.3z M114.9,76.6
	c2.5,0,4.8,0.4,6.6,1.3c1.9,0.8,3.4,2,4.4,3.6c1,1.6,1.5,3.4,1.5,5.6c0,2.1-0.5,4-1.5,5.6c-1,1.6-2.5,2.8-4.4,3.6
	c-1.9,0.8-4.1,1.3-6.6,1.3h-6.6v8.5h-5.5V76.6H114.9z M114.6,92.9c2.4,0,4.2-0.5,5.4-1.5c1.2-1,1.8-2.5,1.8-4.3s-0.6-3.3-1.8-4.3
	c-1.2-1-3-1.5-5.4-1.5h-6.4v11.7H114.6z M153.4,94.9c0,0.4,0,0.9-0.1,1.6h-17.6c0.3,1.7,1.1,3,2.4,3.9c1.3,1,2.9,1.4,4.9,1.4
	c2.5,0,4.5-0.8,6.1-2.4l2.8,3.2c-1,1.2-2.3,2.1-3.8,2.7c-1.5,0.6-3.3,0.9-5.2,0.9c-2.5,0-4.6-0.5-6.5-1.5c-1.9-1-3.3-2.3-4.4-4.1
	c-1-1.8-1.5-3.8-1.5-6c0-2.2,0.5-4.1,1.5-5.9c1-1.8,2.4-3.1,4.2-4.1c1.8-1,3.8-1.5,6-1.5c2.2,0,4.1,0.5,5.8,1.5c1.7,1,3.1,2.3,4,4.1
	C152.9,90.6,153.4,92.6,153.4,94.9z M142,87.5c-1.7,0-3.1,0.5-4.3,1.5c-1.1,1-1.8,2.3-2.1,3.9h12.7c-0.2-1.6-0.9-2.9-2.1-3.9
	C145.2,88,143.7,87.5,142,87.5z M163.4,86.8c1.5-2.4,4.2-3.5,8-3.5v5c-0.4-0.1-0.9-0.1-1.2-0.1c-2,0-3.6,0.6-4.8,1.8
	c-1.1,1.2-1.7,2.9-1.7,5.1V106h-5.3V83.6h5V86.8z M175.8,83.6h5.3V106h-5.3V83.6z M178.5,79.9c-1,0-1.8-0.3-2.4-0.9
	c-0.6-0.6-1-1.4-1-2.3c0-0.9,0.3-1.6,1-2.2c0.6-0.6,1.4-0.9,2.4-0.9c1,0,1.8,0.3,2.4,0.9c0.6,0.6,1,1.3,1,2.1c0,0.9-0.3,1.7-1,2.4
	C180.3,79.6,179.5,79.9,178.5,79.9z M198.1,106.3c-2.3,0-4.3-0.5-6.1-1.5c-1.8-1-3.2-2.3-4.3-4.1c-1-1.8-1.5-3.8-1.5-6
	c0-2.2,0.5-4.2,1.5-5.9c1-1.7,2.5-3.1,4.3-4.1c1.8-1,3.9-1.5,6.1-1.5c2.3,0,4.4,0.5,6.2,1.5c1.8,1,3.2,2.3,4.2,4.1
	c1,1.7,1.6,3.7,1.6,5.9c0,2.2-0.5,4.2-1.6,6c-1,1.7-2.4,3.1-4.2,4.1C202.4,105.8,200.4,106.3,198.1,106.3z M198.1,101.8
	c1.9,0,3.5-0.6,4.8-1.9c1.3-1.3,1.9-3,1.9-5.1c0-2.1-0.6-3.8-1.9-5.1c-1.3-1.3-2.9-1.9-4.8-1.9c-1.9,0-3.5,0.6-4.8,1.9
	c-1.2,1.3-1.8,3-1.8,5.1c0,2.1,0.6,3.8,1.8,5.1C194.5,101.2,196.1,101.8,198.1,101.8z M237,74.8V106h-5v-2.9
	c-0.9,1.1-1.9,1.9-3.2,2.4c-1.3,0.5-2.7,0.8-4.2,0.8c-2.2,0-4.1-0.5-5.8-1.4c-1.7-1-3.1-2.3-4-4c-1-1.8-1.5-3.8-1.5-6
	c0-2.3,0.5-4.3,1.5-6s2.3-3.1,4-4c1.7-1,3.7-1.4,5.8-1.4c1.5,0,2.8,0.3,4.1,0.8c1.2,0.5,2.3,1.3,3.1,2.3V74.8H237z M225.2,101.8
	c1.3,0,2.4-0.3,3.4-0.8c1-0.6,1.8-1.4,2.4-2.5c0.6-1.1,0.9-2.3,0.9-3.7c0-1.4-0.3-2.6-0.9-3.7c-0.6-1.1-1.4-1.9-2.4-2.4
	c-1-0.6-2.1-0.9-3.4-0.9c-1.3,0-2.4,0.3-3.4,0.9c-1,0.6-1.8,1.4-2.4,2.4c-0.6,1.1-0.9,2.3-0.9,3.7c0,1.4,0.3,2.6,0.9,3.7
	c0.6,1.1,1.4,1.9,2.4,2.5C222.8,101.5,223.9,101.8,225.2,101.8z M265,94.9c0,0.4,0,0.9-0.1,1.6h-17.6c0.3,1.7,1.1,3,2.4,3.9
	c1.3,1,2.9,1.4,4.9,1.4c2.5,0,4.5-0.8,6.1-2.4l2.8,3.2c-1,1.2-2.3,2.1-3.8,2.7c-1.5,0.6-3.3,0.9-5.2,0.9c-2.5,0-4.6-0.5-6.5-1.5
	c-1.9-1-3.3-2.3-4.4-4.1c-1-1.8-1.5-3.8-1.5-6c0-2.2,0.5-4.1,1.5-5.9c1-1.8,2.4-3.1,4.2-4.1c1.8-1,3.8-1.5,6-1.5
	c2.2,0,4.1,0.5,5.8,1.5c1.7,1,3.1,2.3,4,4.1C264.5,90.6,265,92.6,265,94.9z M253.6,87.5c-1.7,0-3.1,0.5-4.3,1.5
	c-1.1,1-1.8,2.3-2.1,3.9H260c-0.2-1.6-0.9-2.9-2.1-3.9C256.8,88,255.3,87.5,253.6,87.5z M301.4,106l-6-8.6c-0.3,0-0.6,0-1.1,0h-6.6
	v8.6h-5.5V76.6h12.1c2.5,0,4.8,0.4,6.6,1.3c1.9,0.8,3.4,2,4.4,3.6c1,1.6,1.5,3.4,1.5,5.6c0,2.2-0.5,4.1-1.6,5.7
	c-1.1,1.6-2.6,2.8-4.6,3.6l6.8,9.7H301.4z M301.2,87.1c0-1.9-0.6-3.3-1.8-4.3c-1.2-1-3-1.5-5.4-1.5h-6.4v11.7h6.4
	c2.4,0,4.2-0.5,5.4-1.5C300.6,90.4,301.2,88.9,301.2,87.1z M333.4,94.9c0,0.4,0,0.9-0.1,1.6h-17.6c0.3,1.7,1.1,3,2.4,3.9
	c1.3,1,2.9,1.4,4.9,1.4c2.5,0,4.5-0.8,6.1-2.4l2.8,3.2c-1,1.2-2.3,2.1-3.8,2.7c-1.5,0.6-3.3,0.9-5.2,0.9c-2.5,0-4.6-0.5-6.5-1.5
	c-1.9-1-3.3-2.3-4.4-4.1c-1-1.8-1.5-3.8-1.5-6c0-2.2,0.5-4.1,1.5-5.9c1-1.8,2.4-3.1,4.2-4.1c1.8-1,3.8-1.5,6-1.5
	c2.2,0,4.1,0.5,5.8,1.5c1.7,1,3.1,2.3,4,4.1C332.9,90.6,333.4,92.6,333.4,94.9z M322.1,87.5c-1.7,0-3.1,0.5-4.3,1.5
	c-1.1,1-1.8,2.3-2.1,3.9h12.7c-0.2-1.6-0.9-2.9-2.1-3.9C325.2,88,323.8,87.5,322.1,87.5z M360.7,83.6v19c0,7.9-4,11.8-12.1,11.8
	c-2.2,0-4.2-0.3-6.1-0.8c-1.9-0.5-3.5-1.3-4.8-2.4l2.4-3.9c1,0.8,2.2,1.5,3.7,1.9c1.5,0.5,3,0.8,4.6,0.8c2.5,0,4.3-0.6,5.4-1.7
	c1.1-1.1,1.7-2.8,1.7-5.1V102c-0.9,1-2,1.7-3.3,2.2s-2.7,0.8-4.2,0.8c-2.1,0-4.1-0.4-5.8-1.3c-1.7-0.9-3.1-2.2-4.1-3.9
	c-1-1.7-1.5-3.5-1.5-5.7s0.5-4,1.5-5.6c1-1.7,2.4-2.9,4.1-3.8c1.7-0.9,3.7-1.3,5.8-1.3c1.6,0,3.1,0.3,4.4,0.8
	c1.3,0.5,2.5,1.3,3.4,2.4v-3H360.7z M348.8,100.5c2,0,3.6-0.6,4.9-1.8c1.3-1.2,1.9-2.8,1.9-4.7c0-1.9-0.6-3.4-1.9-4.6
	c-1.3-1.2-2.9-1.8-4.9-1.8c-2,0-3.7,0.6-5,1.8c-1.3,1.2-1.9,2.7-1.9,4.6c0,1.9,0.6,3.5,1.9,4.7C345.1,100,346.7,100.5,348.8,100.5z
	 M367.6,83.6h5.3V106h-5.3V83.6z M370.3,79.9c-1,0-1.8-0.3-2.4-0.9c-0.6-0.6-1-1.4-1-2.3c0-0.9,0.3-1.6,1-2.2
	c0.6-0.6,1.4-0.9,2.4-0.9c1,0,1.8,0.3,2.4,0.9c0.6,0.6,1,1.3,1,2.1c0,0.9-0.3,1.7-1,2.4C372.1,79.6,371.3,79.9,370.3,79.9z
	 M386.7,106.3c-1.8,0-3.6-0.2-5.3-0.7c-1.7-0.5-3.1-1.1-4.2-1.8l2-4c1,0.7,2.2,1.2,3.6,1.6c1.4,0.4,2.8,0.6,4.2,0.6
	c3.1,0,4.7-0.8,4.7-2.5c0-0.8-0.4-1.3-1.2-1.6c-0.8-0.3-2.1-0.6-3.8-0.9c-1.8-0.3-3.4-0.6-4.5-1c-1.1-0.4-2.2-1-3-1.9
	c-0.8-0.9-1.3-2.2-1.3-3.8c0-2.1,0.9-3.8,2.6-5.1c1.8-1.3,4.2-1.9,7.2-1.9c1.5,0,3.1,0.2,4.6,0.5c1.5,0.3,2.8,0.8,3.8,1.4l-2,4
	c-1.9-1.1-4-1.7-6.4-1.7c-1.5,0-2.7,0.2-3.5,0.7c-0.8,0.4-1.2,1-1.2,1.8c0,0.8,0.4,1.4,1.3,1.8c0.9,0.3,2.2,0.7,4,1
	c1.8,0.3,3.3,0.6,4.4,1c1.1,0.4,2.1,1,2.9,1.8c0.8,0.9,1.3,2.1,1.3,3.7c0,2.1-0.9,3.8-2.7,5C392.3,105.7,389.8,106.3,386.7,106.3z
	 M414.9,104.8c-0.6,0.5-1.4,0.9-2.3,1.1c-0.9,0.3-1.8,0.4-2.8,0.4c-2.5,0-4.4-0.6-5.7-1.9s-2-3.2-2-5.6V87.9h-3.7v-4.2h3.7v-5.1h5.3
	v5.1h6v4.2h-6v10.7c0,1.1,0.3,1.9,0.8,2.5c0.5,0.6,1.3,0.8,2.3,0.8c1.2,0,2.2-0.3,2.9-0.9L414.9,104.8z M424.2,86.8
	c1.5-2.4,4.2-3.5,8-3.5v5c-0.4-0.1-0.9-0.1-1.2-0.1c-2,0-3.6,0.6-4.8,1.8c-1.1,1.2-1.7,2.9-1.7,5.1V106h-5.3V83.6h5V86.8z
	 M445.1,83.3c3.3,0,5.8,0.8,7.6,2.4c1.8,1.6,2.6,3.9,2.6,7.1V106h-5v-2.7c-0.6,1-1.6,1.7-2.8,2.3c-1.2,0.5-2.6,0.8-4.3,0.8
	s-3.1-0.3-4.4-0.8c-1.3-0.6-2.2-1.4-2.9-2.4c-0.7-1-1-2.2-1-3.5c0-2,0.7-3.6,2.2-4.8c1.5-1.2,3.9-1.8,7.1-1.8h5.8v-0.3
	c0-1.6-0.5-2.8-1.4-3.6c-0.9-0.8-2.3-1.3-4.2-1.3c-1.3,0-2.5,0.2-3.7,0.6c-1.2,0.4-2.2,0.9-3.1,1.6l-2.1-3.8
	c1.2-0.9,2.6-1.6,4.2-2.1C441.5,83.6,443.2,83.3,445.1,83.3z M444.4,102.5c1.3,0,2.5-0.3,3.5-0.9c1-0.6,1.8-1.5,2.2-2.6v-2.6h-5.4
	c-3,0-4.5,1-4.5,3c0,1,0.4,1.7,1.1,2.3C442,102.2,443,102.5,444.4,102.5z M468.9,106.3c-1.8,0-3.6-0.2-5.3-0.7
	c-1.7-0.5-3.1-1.1-4.2-1.8l2-4c1,0.7,2.2,1.2,3.6,1.6c1.4,0.4,2.8,0.6,4.2,0.6c3.1,0,4.7-0.8,4.7-2.5c0-0.8-0.4-1.3-1.2-1.6
	c-0.8-0.3-2.1-0.6-3.8-0.9c-1.8-0.3-3.4-0.6-4.5-1c-1.1-0.4-2.2-1-3-1.9c-0.8-0.9-1.3-2.2-1.3-3.8c0-2.1,0.9-3.8,2.6-5.1
	c1.8-1.3,4.2-1.9,7.2-1.9c1.5,0,3.1,0.2,4.6,0.5c1.5,0.3,2.8,0.8,3.8,1.4l-2,4c-1.9-1.1-4-1.7-6.4-1.7c-1.5,0-2.7,0.2-3.5,0.7
	c-0.8,0.4-1.2,1-1.2,1.8c0,0.8,0.4,1.4,1.3,1.8c0.9,0.3,2.2,0.7,4,1c1.8,0.3,3.3,0.6,4.4,1c1.1,0.4,2.1,1,2.9,1.8
	c0.8,0.9,1.3,2.1,1.3,3.7c0,2.1-0.9,3.8-2.7,5C474.6,105.7,472.1,106.3,468.9,106.3z M483.6,83.6h5.3V106h-5.3V83.6z M486.3,79.9
	c-1,0-1.8-0.3-2.4-0.9c-0.6-0.6-1-1.4-1-2.3c0-0.9,0.3-1.6,1-2.2c0.6-0.6,1.4-0.9,2.4-0.9s1.8,0.3,2.4,0.9c0.6,0.6,1,1.3,1,2.1
	c0,0.9-0.3,1.7-1,2.4C488,79.6,487.3,79.9,486.3,79.9z"/>
<g>
	<circle class="st2" cx="1008" cy="94.2" r="44"/>
</g>
<g>
	<path class="st3" d="M990.9,86.2c0.7-0.7,1.7-0.8,2.5-0.2l0.2,0.2l15.4,15.7l15.4-15.7c0.7-0.7,1.7-0.8,2.5-0.2l0.2,0.2
		c0.7,0.7,0.7,1.8,0.2,2.6l-0.2,0.2l-16.7,17.1c-0.7,0.7-1.7,0.8-2.5,0.2l-0.2-0.2L990.9,89C990.1,88.2,990.1,87,990.9,86.2z"/>
</g>
</svg>
