<?xml version="1.0" encoding="utf-8"?>
<!-- Generator: Adobe Illustrator 22.0.1, SVG Export Plug-In . SVG Version: 6.00 Build 0)  -->
<svg version="1.1" id="Layer_1" xmlns="http://www.w3.org/2000/svg" xmlns:xlink="http://www.w3.org/1999/xlink" x="0px" y="0px"
	 viewBox="0 0 1128 181" style="enable-background:new 0 0 1128 181;" xml:space="preserve">
<style type="text/css">
	.st0{fill:#65789D;}
	.st1{fill:#FFEFEF;}
	.st2{fill:#574292;}
	.st3{fill:#FFFFFF;stroke:#FFFFFF;stroke-width:3;}
</style>
<path class="st0" d="M1128,93.9c0,47.2-39.9,84.5-87,81.6c-358.8-22.7-591-34.6-950.5-3.1C42.1,176.7,0,138.8,0,90.1l0,0
	C0,41.8,41.6,3.9,89.8,8.3c379.6,34.2,613,43.7,945,3.9C1084.1,6.2,1128,44.3,1128,93.9L1128,93.9z"/>
<path class="st1" d="M84.1,101.4v4.6H62.5v-3.7l11.7-11.1c1.3-1.3,2.2-2.4,2.6-3.3c0.5-1,0.7-1.9,0.7-2.8c0-1.4-0.5-2.4-1.4-3.2
	c-0.9-0.7-2.3-1.1-4.1-1.1c-3,0-5.3,1-6.9,3.1l-3.8-2.9c1.1-1.5,2.7-2.7,4.6-3.6c2-0.9,4.1-1.3,6.6-1.3c3.2,0,5.7,0.8,7.6,2.3
	S83,82,83,84.6c0,1.6-0.3,3.1-1,4.5c-0.7,1.4-2,3-3.9,4.8l-7.9,7.5H84.1z M91,106.3c-1,0-1.8-0.3-2.4-1c-0.7-0.7-1-1.5-1-2.5
	c0-1,0.3-1.9,1-2.5c0.7-0.6,1.5-1,2.5-1s1.8,0.3,2.4,1c0.7,0.6,1,1.5,1,2.5c0,1-0.3,1.8-1,2.5C92.7,106,91.9,106.3,91,106.3z
	 M123.8,76.6c2.5,0,4.8,0.4,6.6,1.3c1.9,0.8,3.4,2,4.4,3.6s1.5,3.4,1.5,5.6c0,2.1-0.5,4-1.5,5.6c-1,1.6-2.5,2.8-4.4,3.6
	c-1.9,0.8-4.1,1.3-6.6,1.3h-6.6v8.5h-5.5V76.6H123.8z M123.5,92.9c2.4,0,4.2-0.5,5.4-1.5c1.2-1,1.8-2.5,1.8-4.3s-0.6-3.3-1.8-4.3
	c-1.2-1-3-1.5-5.4-1.5h-6.4v11.7H123.5z M162.2,94.9c0,0.4,0,0.9-0.1,1.6h-17.6c0.3,1.7,1.1,3,2.4,3.9c1.3,1,2.9,1.4,4.9,1.4
	c2.5,0,4.5-0.8,6.1-2.4l2.8,3.2c-1,1.2-2.3,2.1-3.8,2.7c-1.5,0.6-3.3,0.9-5.2,0.9c-2.5,0-4.6-0.5-6.5-1.5c-1.9-1-3.3-2.3-4.4-4.1
	c-1-1.8-1.5-3.8-1.5-6c0-2.2,0.5-4.1,1.5-5.9c1-1.8,2.4-3.1,4.2-4.1c1.8-1,3.8-1.5,6-1.5c2.2,0,4.1,0.5,5.8,1.5c1.7,1,3.1,2.3,4,4.1
	C161.7,90.6,162.2,92.6,162.2,94.9z M150.9,87.5c-1.7,0-3.1,0.5-4.3,1.5c-1.1,1-1.8,2.3-2.1,3.9h12.7c-0.2-1.6-0.9-2.9-2.1-3.9
	C154,88,152.6,87.5,150.9,87.5z M195.6,83.3c2.8,0,5.1,0.8,6.7,2.5c1.7,1.6,2.5,4.1,2.5,7.4V106h-5.3V93.8c0-2-0.4-3.4-1.3-4.4
	c-0.9-1-2.1-1.5-3.7-1.5c-1.8,0-3.2,0.6-4.2,1.8c-1.1,1.1-1.6,2.8-1.6,5V106h-5.3V93.8c0-2-0.4-3.4-1.3-4.4c-0.9-1-2.1-1.5-3.7-1.5
	c-1.8,0-3.2,0.6-4.3,1.7c-1,1.1-1.6,2.8-1.6,5V106h-5.3V83.6h5v2.9c0.8-1,1.9-1.8,3.1-2.3c1.3-0.5,2.7-0.8,4.2-0.8
	c1.7,0,3.2,0.3,4.5,1c1.3,0.6,2.4,1.5,3.1,2.8c0.9-1.2,2.1-2.1,3.6-2.7C192.2,83.7,193.8,83.3,195.6,83.3z M223.9,83.3
	c2.2,0,4.1,0.5,5.8,1.4c1.7,1,3.1,2.3,4.1,4c1,1.7,1.5,3.7,1.5,6c0,2.3-0.5,4.3-1.5,6c-1,1.7-2.3,3.1-4.1,4c-1.7,1-3.7,1.4-5.8,1.4
	c-1.5,0-3-0.3-4.2-0.8c-1.3-0.5-2.3-1.3-3.2-2.4v2.9h-5V74.8h5.3v11.5c0.9-1,1.9-1.7,3.1-2.2C221.1,83.6,222.5,83.3,223.9,83.3z
	 M223.3,101.8c1.9,0,3.5-0.6,4.7-1.9c1.3-1.3,1.9-3,1.9-5.1c0-2.1-0.6-3.8-1.9-5.1c-1.2-1.3-2.8-1.9-4.7-1.9c-1.3,0-2.4,0.3-3.4,0.9
	c-1,0.6-1.8,1.4-2.4,2.4c-0.6,1.1-0.9,2.3-0.9,3.7c0,1.4,0.3,2.6,0.9,3.7c0.6,1.1,1.4,1.9,2.4,2.5
	C220.9,101.5,222.1,101.8,223.3,101.8z M248.6,83.3c3.3,0,5.8,0.8,7.6,2.4c1.8,1.6,2.6,3.9,2.6,7.1V106h-5v-2.7
	c-0.6,1-1.6,1.7-2.8,2.3c-1.2,0.5-2.6,0.8-4.3,0.8c-1.7,0-3.2-0.3-4.4-0.8c-1.3-0.6-2.2-1.4-2.9-2.4c-0.7-1-1-2.2-1-3.5
	c0-2,0.7-3.6,2.2-4.8c1.5-1.2,3.9-1.8,7.1-1.8h5.8v-0.3c0-1.6-0.5-2.8-1.4-3.6c-0.9-0.8-2.3-1.3-4.2-1.3c-1.3,0-2.5,0.2-3.7,0.6
	c-1.2,0.4-2.2,0.9-3.1,1.6l-2.1-3.8c1.2-0.9,2.6-1.6,4.2-2.1C245,83.6,246.7,83.3,248.6,83.3z M247.8,102.5c1.3,0,2.5-0.3,3.5-0.9
	c1-0.6,1.8-1.5,2.2-2.6v-2.6h-5.4c-3,0-4.5,1-4.5,3c0,1,0.4,1.7,1.1,2.3C245.5,102.2,246.5,102.5,247.8,102.5z M286.1,83.6
	l-10.5,24.2c-1,2.4-2.2,4.1-3.6,5.1c-1.4,1-3.1,1.5-5.1,1.5c-1.1,0-2.2-0.2-3.3-0.5c-1.1-0.4-2-0.9-2.7-1.5l2.1-3.9
	c0.5,0.5,1.1,0.9,1.8,1.1c0.7,0.3,1.4,0.4,2.1,0.4c0.9,0,1.7-0.2,2.3-0.7c0.6-0.5,1.2-1.3,1.7-2.4l0.4-0.9l-9.8-22.5h5.5l7.1,16.6
	l7.1-16.6H286.1z M297.2,83.3c3.3,0,5.8,0.8,7.6,2.4c1.8,1.6,2.6,3.9,2.6,7.1V106h-5v-2.7c-0.6,1-1.6,1.7-2.8,2.3
	c-1.2,0.5-2.6,0.8-4.3,0.8c-1.7,0-3.1-0.3-4.4-0.8c-1.3-0.6-2.2-1.4-2.9-2.4c-0.7-1-1-2.2-1-3.5c0-2,0.7-3.6,2.2-4.8
	c1.5-1.2,3.9-1.8,7.1-1.8h5.8v-0.3c0-1.6-0.5-2.8-1.4-3.6c-0.9-0.8-2.3-1.3-4.2-1.3c-1.3,0-2.5,0.2-3.7,0.6
	c-1.2,0.4-2.2,0.9-3.1,1.6l-2.1-3.8c1.2-0.9,2.6-1.6,4.2-2.1C293.6,83.6,295.4,83.3,297.2,83.3z M296.5,102.5c1.3,0,2.5-0.3,3.5-0.9
	c1-0.6,1.8-1.5,2.2-2.6v-2.6h-5.4c-3,0-4.5,1-4.5,3c0,1,0.4,1.7,1.1,2.3C294.1,102.2,295.2,102.5,296.5,102.5z M319.2,86.8
	c1.5-2.4,4.2-3.5,8-3.5v5c-0.4-0.1-0.9-0.1-1.2-0.1c-2,0-3.6,0.6-4.8,1.8c-1.1,1.2-1.7,2.9-1.7,5.1V106h-5.3V83.6h5V86.8z
	 M340.1,83.3c3.3,0,5.8,0.8,7.6,2.4c1.8,1.6,2.6,3.9,2.6,7.1V106h-5v-2.7c-0.6,1-1.6,1.7-2.8,2.3c-1.2,0.5-2.6,0.8-4.3,0.8
	s-3.1-0.3-4.4-0.8c-1.3-0.6-2.2-1.4-2.9-2.4c-0.7-1-1-2.2-1-3.5c0-2,0.7-3.6,2.2-4.8c1.5-1.2,3.9-1.8,7.1-1.8h5.8v-0.3
	c0-1.6-0.5-2.8-1.4-3.6c-0.9-0.8-2.3-1.3-4.2-1.3c-1.3,0-2.5,0.2-3.7,0.6c-1.2,0.4-2.2,0.9-3.1,1.6l-2.1-3.8
	c1.2-0.9,2.6-1.6,4.2-2.1C336.5,83.6,338.2,83.3,340.1,83.3z M339.4,102.5c1.3,0,2.5-0.3,3.5-0.9c1-0.6,1.8-1.5,2.2-2.6v-2.6h-5.4
	c-3,0-4.5,1-4.5,3c0,1,0.4,1.7,1.1,2.3C337,102.2,338,102.5,339.4,102.5z M369.7,83.3c2.8,0,5.1,0.8,6.8,2.5
	c1.7,1.7,2.6,4.1,2.6,7.4V106h-5.3V93.8c0-2-0.5-3.4-1.4-4.4c-0.9-1-2.2-1.5-3.9-1.5c-1.9,0-3.5,0.6-4.6,1.8c-1.1,1.1-1.7,2.8-1.7,5
	V106H357V83.6h5v2.9c0.9-1,2-1.8,3.3-2.4C366.6,83.6,368.1,83.3,369.7,83.3z M418.7,90.7c1.6,0.5,2.9,1.4,3.9,2.7
	c1,1.2,1.4,2.8,1.4,4.6c0,2.5-1,4.5-2.9,5.9c-2,1.4-4.8,2.1-8.6,2.1h-14.6V76.6h13.8c3.5,0,6.1,0.7,8,2.1c1.9,1.3,2.8,3.2,2.8,5.6
	c0,1.5-0.3,2.7-1,3.9C420.8,89.2,419.9,90.1,418.7,90.7z M403.3,80.9V89h7.7c1.9,0,3.4-0.3,4.4-1c1-0.7,1.6-1.7,1.6-3
	c0-1.3-0.5-2.4-1.6-3c-1-0.7-2.5-1-4.4-1H403.3z M412.2,101.7c4.2,0,6.3-1.4,6.3-4.2c0-2.8-2.1-4.2-6.3-4.2h-8.8v8.5H412.2z
	 M429.3,83.6h5.3V106h-5.3V83.6z M432,79.9c-1,0-1.8-0.3-2.4-0.9c-0.6-0.6-1-1.4-1-2.3c0-0.9,0.3-1.6,1-2.2c0.6-0.6,1.4-0.9,2.4-0.9
	s1.8,0.3,2.4,0.9c0.6,0.6,1,1.3,1,2.1c0,0.9-0.3,1.7-1,2.4C433.7,79.6,432.9,79.9,432,79.9z M450,83.3c3.3,0,5.8,0.8,7.6,2.4
	c1.8,1.6,2.6,3.9,2.6,7.1V106h-5v-2.7c-0.6,1-1.6,1.7-2.8,2.3c-1.2,0.5-2.6,0.8-4.3,0.8c-1.7,0-3.1-0.3-4.4-0.8
	c-1.3-0.6-2.2-1.4-2.9-2.4c-0.7-1-1-2.2-1-3.5c0-2,0.7-3.6,2.2-4.8c1.5-1.2,3.9-1.8,7.1-1.8h5.8v-0.3c0-1.6-0.5-2.8-1.4-3.6
	c-0.9-0.8-2.3-1.3-4.2-1.3c-1.3,0-2.5,0.2-3.7,0.6c-1.2,0.4-2.2,0.9-3.1,1.6l-2.1-3.8c1.2-0.9,2.6-1.6,4.2-2.1
	C446.4,83.6,448.2,83.3,450,83.3z M449.3,102.5c1.3,0,2.5-0.3,3.5-0.9c1-0.6,1.8-1.5,2.2-2.6v-2.6h-5.4c-3,0-4.5,1-4.5,3
	c0,1,0.4,1.7,1.1,2.3C446.9,102.2,448,102.5,449.3,102.5z M487.6,83.6l-10.5,24.2c-1,2.4-2.2,4.1-3.6,5.1c-1.4,1-3.1,1.5-5.1,1.5
	c-1.1,0-2.2-0.2-3.3-0.5c-1.1-0.4-2-0.9-2.7-1.5l2.1-3.9c0.5,0.5,1.1,0.9,1.8,1.1c0.7,0.3,1.4,0.4,2.1,0.4c0.9,0,1.7-0.2,2.3-0.7
	c0.6-0.5,1.2-1.3,1.7-2.4l0.4-0.9l-9.8-22.5h5.5l7.1,16.6l7.1-16.6H487.6z M498.7,83.3c3.3,0,5.8,0.8,7.6,2.4
	c1.8,1.6,2.6,3.9,2.6,7.1V106h-5v-2.7c-0.6,1-1.6,1.7-2.8,2.3c-1.2,0.5-2.6,0.8-4.3,0.8c-1.7,0-3.2-0.3-4.4-0.8
	c-1.3-0.6-2.2-1.4-2.9-2.4c-0.7-1-1-2.2-1-3.5c0-2,0.7-3.6,2.2-4.8c1.5-1.2,3.9-1.8,7.1-1.8h5.8v-0.3c0-1.6-0.5-2.8-1.4-3.6
	c-0.9-0.8-2.3-1.3-4.2-1.3c-1.3,0-2.5,0.2-3.7,0.6c-1.2,0.4-2.2,0.9-3.1,1.6l-2.1-3.8c1.2-0.9,2.6-1.6,4.2-2.1
	C495.1,83.6,496.9,83.3,498.7,83.3z M498,102.5c1.3,0,2.5-0.3,3.5-0.9c1-0.6,1.8-1.5,2.2-2.6v-2.6h-5.4c-3,0-4.5,1-4.5,3
	c0,1,0.4,1.7,1.1,2.3C495.6,102.2,496.7,102.5,498,102.5z M539.9,76.6c2.5,0,4.8,0.4,6.6,1.3c1.9,0.8,3.4,2,4.4,3.6s1.5,3.4,1.5,5.6
	c0,2.1-0.5,4-1.5,5.6c-1,1.6-2.5,2.8-4.4,3.6c-1.9,0.8-4.1,1.3-6.6,1.3h-6.6v8.5h-5.5V76.6H539.9z M539.6,92.9
	c2.4,0,4.2-0.5,5.4-1.5c1.2-1,1.8-2.5,1.8-4.3s-0.6-3.3-1.8-4.3c-1.2-1-3-1.5-5.4-1.5h-6.4v11.7H539.6z M578.3,94.9
	c0,0.4,0,0.9-0.1,1.6h-17.6c0.3,1.7,1.1,3,2.4,3.9c1.3,1,2.9,1.4,4.9,1.4c2.5,0,4.5-0.8,6.1-2.4l2.8,3.2c-1,1.2-2.3,2.1-3.8,2.7
	c-1.5,0.6-3.3,0.9-5.2,0.9c-2.5,0-4.6-0.5-6.5-1.5c-1.9-1-3.3-2.3-4.4-4.1c-1-1.8-1.5-3.8-1.5-6c0-2.2,0.5-4.1,1.5-5.9
	c1-1.8,2.4-3.1,4.2-4.1c1.8-1,3.8-1.5,6-1.5c2.2,0,4.1,0.5,5.8,1.5c1.7,1,3.1,2.3,4,4.1C577.8,90.6,578.3,92.6,578.3,94.9z
	 M567,87.5c-1.7,0-3.1,0.5-4.3,1.5c-1.1,1-1.8,2.3-2.1,3.9h12.7c-0.2-1.6-0.9-2.9-2.1-3.9C570.1,88,568.7,87.5,567,87.5z
	 M596.1,83.3c2.8,0,5.1,0.8,6.8,2.5c1.7,1.7,2.6,4.1,2.6,7.4V106h-5.3V93.8c0-2-0.5-3.4-1.4-4.4c-0.9-1-2.2-1.5-3.9-1.5
	c-1.9,0-3.5,0.6-4.6,1.8c-1.1,1.1-1.7,2.8-1.7,5V106h-5.3V83.6h5v2.9c0.9-1,2-1.8,3.3-2.4C593,83.6,594.4,83.3,596.1,83.3z
	 M634.3,74.8V106h-5v-2.9c-0.9,1.1-1.9,1.9-3.2,2.4c-1.3,0.5-2.7,0.8-4.2,0.8c-2.2,0-4.1-0.5-5.8-1.4c-1.7-1-3.1-2.3-4-4
	c-1-1.8-1.5-3.8-1.5-6c0-2.3,0.5-4.3,1.5-6s2.3-3.1,4-4c1.7-1,3.7-1.4,5.8-1.4c1.5,0,2.8,0.3,4.1,0.8c1.2,0.5,2.3,1.3,3.2,2.3V74.8
	H634.3z M622.5,101.8c1.3,0,2.4-0.3,3.4-0.8c1-0.6,1.8-1.4,2.4-2.5c0.6-1.1,0.9-2.3,0.9-3.7c0-1.4-0.3-2.6-0.9-3.7
	c-0.6-1.1-1.4-1.9-2.4-2.4c-1-0.6-2.1-0.9-3.4-0.9s-2.4,0.3-3.4,0.9c-1,0.6-1.8,1.4-2.4,2.4c-0.6,1.1-0.9,2.3-0.9,3.7
	c0,1.4,0.3,2.6,0.9,3.7c0.6,1.1,1.4,1.9,2.4,2.5C620.1,101.5,621.2,101.8,622.5,101.8z M649.7,83.3c3.3,0,5.8,0.8,7.6,2.4
	c1.8,1.6,2.6,3.9,2.6,7.1V106h-5v-2.7c-0.6,1-1.6,1.7-2.8,2.3c-1.2,0.5-2.6,0.8-4.3,0.8s-3.2-0.3-4.4-0.8c-1.3-0.6-2.2-1.4-2.9-2.4
	c-0.7-1-1-2.2-1-3.5c0-2,0.7-3.6,2.2-4.8c1.5-1.2,3.9-1.8,7.1-1.8h5.8v-0.3c0-1.6-0.5-2.8-1.4-3.6c-0.9-0.8-2.3-1.3-4.2-1.3
	c-1.3,0-2.5,0.2-3.7,0.6c-1.2,0.4-2.2,0.9-3.1,1.6l-2.1-3.8c1.2-0.9,2.6-1.6,4.2-2.1C646.1,83.6,647.9,83.3,649.7,83.3z M649,102.5
	c1.3,0,2.5-0.3,3.5-0.9c1-0.6,1.8-1.5,2.2-2.6v-2.6h-5.4c-3,0-4.5,1-4.5,3c0,1,0.4,1.7,1.1,2.3C646.6,102.2,647.7,102.5,649,102.5z
	 M675.8,78.8c-2.2,0-3.3,1.2-3.3,3.6v1.3h6.2v4.2h-6V106h-5.3V87.9h-3.7v-4.2h3.7v-1.4c0-2.4,0.7-4.3,2.1-5.7
	c1.4-1.4,3.4-2.1,5.9-2.1c2,0,3.6,0.4,4.7,1.2l-1.5,3.9C677.8,79.1,676.8,78.8,675.8,78.8z M695.7,104.8c-0.6,0.5-1.4,0.9-2.3,1.1
	c-0.9,0.3-1.8,0.4-2.8,0.4c-2.5,0-4.4-0.6-5.7-1.9c-1.3-1.3-2-3.2-2-5.6V87.9h-3.7v-4.2h3.7v-5.1h5.3v5.1h6v4.2h-6v10.7
	c0,1.1,0.3,1.9,0.8,2.5c0.5,0.6,1.3,0.8,2.3,0.8c1.2,0,2.2-0.3,2.9-0.9L695.7,104.8z M708.5,83.3c3.3,0,5.8,0.8,7.6,2.4
	c1.8,1.6,2.6,3.9,2.6,7.1V106h-5v-2.7c-0.6,1-1.6,1.7-2.8,2.3c-1.2,0.5-2.6,0.8-4.3,0.8s-3.1-0.3-4.4-0.8c-1.3-0.6-2.2-1.4-2.9-2.4
	c-0.7-1-1-2.2-1-3.5c0-2,0.7-3.6,2.2-4.8c1.5-1.2,3.9-1.8,7.1-1.8h5.8v-0.3c0-1.6-0.5-2.8-1.4-3.6c-0.9-0.8-2.3-1.3-4.2-1.3
	c-1.3,0-2.5,0.2-3.7,0.6c-1.2,0.4-2.2,0.9-3.1,1.6l-2.1-3.8c1.2-0.9,2.6-1.6,4.2-2.1C705,83.6,706.7,83.3,708.5,83.3z M707.8,102.5
	c1.3,0,2.5-0.3,3.5-0.9c1-0.6,1.8-1.5,2.2-2.6v-2.6h-5.4c-3,0-4.5,1-4.5,3c0,1,0.4,1.7,1.1,2.3C705.4,102.2,706.5,102.5,707.8,102.5
	z M730.5,86.8c1.5-2.4,4.2-3.5,8-3.5v5c-0.4-0.1-0.9-0.1-1.2-0.1c-2,0-3.6,0.6-4.8,1.8c-1.1,1.2-1.7,2.9-1.7,5.1V106h-5.3V83.6h5
	V86.8z M751.4,83.3c3.3,0,5.8,0.8,7.6,2.4c1.8,1.6,2.6,3.9,2.6,7.1V106h-5v-2.7c-0.6,1-1.6,1.7-2.8,2.3c-1.2,0.5-2.6,0.8-4.3,0.8
	s-3.1-0.3-4.4-0.8c-1.3-0.6-2.2-1.4-2.9-2.4c-0.7-1-1-2.2-1-3.5c0-2,0.7-3.6,2.2-4.8c1.5-1.2,3.9-1.8,7.1-1.8h5.8v-0.3
	c0-1.6-0.5-2.8-1.4-3.6c-0.9-0.8-2.3-1.3-4.2-1.3c-1.3,0-2.5,0.2-3.7,0.6c-1.2,0.4-2.2,0.9-3.1,1.6l-2.1-3.8
	c1.2-0.9,2.6-1.6,4.2-2.1C747.8,83.6,749.5,83.3,751.4,83.3z M750.7,102.5c1.3,0,2.5-0.3,3.5-0.9c1-0.6,1.8-1.5,2.2-2.6v-2.6h-5.4
	c-3,0-4.5,1-4.5,3c0,1,0.4,1.7,1.1,2.3C748.3,102.2,749.3,102.5,750.7,102.5z M781,83.3c2.8,0,5.1,0.8,6.8,2.5
	c1.7,1.7,2.6,4.1,2.6,7.4V106h-5.3V93.8c0-2-0.5-3.4-1.4-4.4c-0.9-1-2.2-1.5-3.9-1.5c-1.9,0-3.5,0.6-4.6,1.8c-1.1,1.1-1.7,2.8-1.7,5
	V106h-5.3V83.6h5v2.9c0.9-1,2-1.8,3.3-2.4C777.9,83.6,779.4,83.3,781,83.3z"/>
<g>
	<circle class="st2" cx="1000" cy="97.5" r="44"/>
</g>
<g>
	<path class="st3" d="M982.9,89.5c0.7-0.7,1.7-0.8,2.5-0.2l0.2,0.2l15.4,15.7l15.4-15.7c0.7-0.7,1.7-0.8,2.5-0.2l0.2,0.2
		c0.7,0.7,0.7,1.8,0.2,2.6l-0.2,0.2l-16.7,17.1c-0.7,0.7-1.7,0.8-2.5,0.2l-0.2-0.2l-16.7-17.1C982.1,91.6,982.1,90.3,982.9,89.5z"/>
</g>
</svg>
