<?xml version="1.0" encoding="utf-8"?>
<!-- Generator: Adobe Illustrator 22.0.1, SVG Export Plug-In . SVG Version: 6.00 Build 0)  -->
<svg version="1.1" id="Layer_1" xmlns="http://www.w3.org/2000/svg" xmlns:xlink="http://www.w3.org/1999/xlink" x="0px" y="0px"
	 viewBox="0 0 1128 181" style="enable-background:new 0 0 1128 181;" xml:space="preserve">
<style type="text/css">
	.st0{fill:#65789D;}
	.st1{fill:#FFEFEF;}
	.st2{fill:#574292;}
	.st3{fill:#FFFFFF;stroke:#FFFFFF;stroke-width:3;}
</style>
<path class="st0" d="M1128,93.9c0,47.2-39.9,84.5-87,81.6c-358.8-22.7-591-34.6-950.5-3.1C42.1,176.7,0,138.8,0,90.1l0,0
	C0,41.8,41.6,3.9,89.8,8.3c379.6,34.2,613,43.7,945,3.9C1084.1,6.2,1128,44.3,1128,93.9L1128,93.9z"/>
<path class="st1" d="M75.4,88.7c2.7,0.3,4.8,1.3,6.2,2.8s2.1,3.4,2.1,5.7c0,1.7-0.4,3.3-1.3,4.7c-0.9,1.4-2.2,2.5-3.9,3.4
	c-1.7,0.8-3.9,1.2-6.4,1.2c-2.1,0-4.1-0.3-6.1-0.9c-1.9-0.6-3.6-1.5-5-2.5l2.4-4.2c1.1,0.9,2.4,1.6,3.9,2.1c1.5,0.5,3.1,0.8,4.7,0.8
	c1.9,0,3.4-0.4,4.5-1.2c1.1-0.8,1.7-1.9,1.7-3.3s-0.5-2.4-1.6-3.2c-1-0.8-2.6-1.2-4.8-1.2h-2.7v-3.7l6.7-7.9H62.5v-4.6h20v3.7
	L75.4,88.7z M90.6,106.3c-1,0-1.8-0.3-2.4-1c-0.7-0.7-1-1.5-1-2.5c0-1,0.3-1.9,1-2.5c0.7-0.6,1.5-1,2.5-1c1,0,1.8,0.3,2.4,1
	c0.7,0.6,1,1.5,1,2.5c0,1-0.3,1.8-1,2.5C92.3,106,91.5,106.3,90.6,106.3z M123.9,106.4c-4.1,0-7.2-1.1-9.5-3.4
	c-2.3-2.3-3.4-5.6-3.4-9.8V76.6h5.5V93c0,5.8,2.5,8.7,7.5,8.7c5,0,7.4-2.9,7.4-8.7V76.6h5.4v16.6c0,4.3-1.1,7.5-3.4,9.8
	C131.1,105.3,128,106.4,123.9,106.4z M156.3,83.3c2.2,0,4.1,0.5,5.8,1.4c1.7,1,3.1,2.3,4.1,4s1.5,3.7,1.5,6c0,2.3-0.5,4.3-1.5,6
	c-1,1.7-2.3,3.1-4.1,4c-1.7,1-3.7,1.4-5.8,1.4c-3,0-5.4-1-7.2-3v10.9h-5.3V83.6h5v2.9c0.9-1.1,1.9-1.9,3.2-2.4
	C153.4,83.6,154.8,83.3,156.3,83.3z M155.7,101.8c1.9,0,3.5-0.6,4.7-1.9c1.3-1.3,1.9-3,1.9-5.1c0-2.1-0.6-3.8-1.9-5.1
	c-1.2-1.3-2.8-1.9-4.7-1.9c-1.3,0-2.4,0.3-3.4,0.9c-1,0.6-1.8,1.4-2.4,2.4c-0.6,1.1-0.9,2.3-0.9,3.7c0,1.4,0.3,2.6,0.9,3.7
	c0.6,1.1,1.4,1.9,2.4,2.5C153.3,101.5,154.5,101.8,155.7,101.8z M172.7,74.8h5.3V106h-5.3V74.8z M194.9,106.3
	c-2.3,0-4.3-0.5-6.1-1.5c-1.8-1-3.2-2.3-4.3-4.1c-1-1.8-1.5-3.8-1.5-6c0-2.2,0.5-4.2,1.5-5.9c1-1.7,2.5-3.1,4.3-4.1
	c1.8-1,3.9-1.5,6.1-1.5c2.3,0,4.4,0.5,6.2,1.5c1.8,1,3.2,2.3,4.2,4.1c1,1.7,1.6,3.7,1.6,5.9c0,2.2-0.5,4.2-1.6,6
	c-1,1.7-2.4,3.1-4.2,4.1C199.3,105.8,197.2,106.3,194.9,106.3z M194.9,101.8c1.9,0,3.5-0.6,4.8-1.9c1.3-1.3,1.9-3,1.9-5.1
	c0-2.1-0.6-3.8-1.9-5.1c-1.3-1.3-2.9-1.9-4.8-1.9c-1.9,0-3.5,0.6-4.8,1.9c-1.2,1.3-1.8,3-1.8,5.1c0,2.1,0.6,3.8,1.8,5.1
	C191.4,101.2,193,101.8,194.9,101.8z M233.6,83.6V106h-5v-2.9c-0.8,1-1.9,1.8-3.1,2.4c-1.3,0.5-2.6,0.8-4.1,0.8
	c-3,0-5.4-0.8-7.1-2.5c-1.7-1.7-2.6-4.2-2.6-7.4V83.6h5.3v12.1c0,2,0.4,3.5,1.3,4.5c0.9,1,2.2,1.5,3.9,1.5c1.9,0,3.4-0.6,4.5-1.7
	c1.1-1.2,1.7-2.9,1.7-5V83.6H233.6z M262.4,74.8V106h-5v-2.9c-0.9,1.1-1.9,1.9-3.2,2.4c-1.3,0.5-2.7,0.8-4.2,0.8
	c-2.2,0-4.1-0.5-5.8-1.4c-1.7-1-3.1-2.3-4-4c-1-1.8-1.5-3.8-1.5-6c0-2.3,0.5-4.3,1.5-6c1-1.7,2.3-3.1,4-4c1.7-1,3.7-1.4,5.8-1.4
	c1.5,0,2.8,0.3,4.1,0.8c1.2,0.5,2.3,1.3,3.2,2.3V74.8H262.4z M250.6,101.8c1.3,0,2.4-0.3,3.4-0.8c1-0.6,1.8-1.4,2.4-2.5
	c0.6-1.1,0.9-2.3,0.9-3.7c0-1.4-0.3-2.6-0.9-3.7c-0.6-1.1-1.4-1.9-2.4-2.4c-1-0.6-2.1-0.9-3.4-0.9c-1.3,0-2.4,0.3-3.4,0.9
	c-1,0.6-1.8,1.4-2.4,2.4c-0.6,1.1-0.9,2.3-0.9,3.7c0,1.4,0.3,2.6,0.9,3.7c0.6,1.1,1.4,1.9,2.4,2.5
	C248.2,101.5,249.3,101.8,250.6,101.8z M302.3,90.7c1.6,0.5,2.9,1.4,3.9,2.7c1,1.2,1.4,2.8,1.4,4.6c0,2.5-1,4.5-2.9,5.9
	c-2,1.4-4.8,2.1-8.6,2.1h-14.6V76.6h13.8c3.5,0,6.1,0.7,8,2.1c1.9,1.3,2.8,3.2,2.8,5.6c0,1.5-0.3,2.7-1,3.9
	C304.4,89.2,303.4,90.1,302.3,90.7z M286.9,80.9V89h7.7c1.9,0,3.4-0.3,4.4-1c1-0.7,1.6-1.7,1.6-3c0-1.3-0.5-2.4-1.6-3
	c-1-0.7-2.5-1-4.4-1H286.9z M295.7,101.7c4.2,0,6.3-1.4,6.3-4.2c0-2.8-2.1-4.2-6.3-4.2h-8.8v8.5H295.7z M334.6,83.6V106h-5v-2.9
	c-0.8,1-1.9,1.8-3.2,2.4c-1.3,0.5-2.6,0.8-4.1,0.8c-3,0-5.4-0.8-7.1-2.5c-1.7-1.7-2.6-4.2-2.6-7.4V83.6h5.3v12.1
	c0,2,0.4,3.5,1.3,4.5c0.9,1,2.2,1.5,3.9,1.5c1.9,0,3.4-0.6,4.5-1.7c1.1-1.2,1.7-2.9,1.7-5V83.6H334.6z M350.6,96.4l-3.9,3.7v5.9
	h-5.3V74.8h5.3v18.8l10.9-10.1h6.3l-9.4,9.4l10.2,13h-6.4L350.6,96.4z M381.6,104.8c-0.6,0.5-1.4,0.9-2.3,1.1
	c-0.9,0.3-1.8,0.4-2.8,0.4c-2.5,0-4.4-0.6-5.7-1.9c-1.3-1.3-2-3.2-2-5.6V87.9h-3.7v-4.2h3.7v-5.1h5.3v5.1h6v4.2h-6v10.7
	c0,1.1,0.3,1.9,0.8,2.5c0.5,0.6,1.3,0.8,2.3,0.8c1.2,0,2.2-0.3,2.9-0.9L381.6,104.8z M386,83.6h5.3V106H386V83.6z M388.6,79.9
	c-1,0-1.8-0.3-2.4-0.9c-0.6-0.6-1-1.4-1-2.3c0-0.9,0.3-1.6,1-2.2c0.6-0.6,1.4-0.9,2.4-0.9s1.8,0.3,2.4,0.9c0.6,0.6,1,1.3,1,2.1
	c0,0.9-0.3,1.7-1,2.4C390.4,79.6,389.6,79.9,388.6,79.9z M422.3,76.6c2.5,0,4.8,0.4,6.6,1.3c1.9,0.8,3.4,2,4.4,3.6s1.5,3.4,1.5,5.6
	c0,2.1-0.5,4-1.5,5.6c-1,1.6-2.5,2.8-4.4,3.6c-1.9,0.8-4.1,1.3-6.6,1.3h-6.6v8.5h-5.5V76.6H422.3z M422.1,92.9
	c2.4,0,4.2-0.5,5.4-1.5c1.2-1,1.8-2.5,1.8-4.3s-0.6-3.3-1.8-4.3c-1.2-1-3-1.5-5.4-1.5h-6.4v11.7H422.1z M460.8,94.9
	c0,0.4,0,0.9-0.1,1.6h-17.6c0.3,1.7,1.1,3,2.4,3.9c1.3,1,2.9,1.4,4.9,1.4c2.5,0,4.5-0.8,6.1-2.4l2.8,3.2c-1,1.2-2.3,2.1-3.8,2.7
	c-1.5,0.6-3.3,0.9-5.2,0.9c-2.5,0-4.6-0.5-6.5-1.5c-1.9-1-3.3-2.3-4.4-4.1c-1-1.8-1.5-3.8-1.5-6c0-2.2,0.5-4.1,1.5-5.9
	c1-1.8,2.4-3.1,4.2-4.1c1.8-1,3.8-1.5,6-1.5c2.2,0,4.1,0.5,5.8,1.5c1.7,1,3.1,2.3,4,4.1C460.3,90.6,460.8,92.6,460.8,94.9z
	 M449.4,87.5c-1.7,0-3.1,0.5-4.3,1.5c-1.1,1-1.8,2.3-2.1,3.9h12.7c-0.2-1.6-0.9-2.9-2.1-3.9C452.6,88,451.1,87.5,449.4,87.5z
	 M494.1,83.3c2.8,0,5.1,0.8,6.7,2.5c1.7,1.6,2.5,4.1,2.5,7.4V106h-5.3V93.8c0-2-0.4-3.4-1.3-4.4c-0.9-1-2.1-1.5-3.7-1.5
	c-1.8,0-3.2,0.6-4.2,1.8c-1.1,1.1-1.6,2.8-1.6,5V106H482V93.8c0-2-0.4-3.4-1.3-4.4c-0.9-1-2.1-1.5-3.7-1.5c-1.8,0-3.2,0.6-4.3,1.7
	c-1,1.1-1.6,2.8-1.6,5V106h-5.3V83.6h5v2.9c0.8-1,1.9-1.8,3.1-2.3c1.3-0.5,2.7-0.8,4.2-0.8c1.7,0,3.2,0.3,4.5,1
	c1.3,0.6,2.4,1.5,3.1,2.8c0.9-1.2,2.1-2.1,3.6-2.7C490.8,83.7,492.4,83.3,494.1,83.3z M522.5,83.3c2.2,0,4.1,0.5,5.8,1.4
	c1.7,1,3.1,2.3,4.1,4c1,1.7,1.5,3.7,1.5,6c0,2.3-0.5,4.3-1.5,6c-1,1.7-2.3,3.1-4.1,4c-1.7,1-3.7,1.4-5.8,1.4c-1.5,0-3-0.3-4.2-0.8
	c-1.3-0.5-2.3-1.3-3.2-2.4v2.9h-5V74.8h5.3v11.5c0.9-1,1.9-1.7,3.1-2.2C519.7,83.6,521,83.3,522.5,83.3z M521.9,101.8
	c1.9,0,3.5-0.6,4.7-1.9c1.3-1.3,1.9-3,1.9-5.1c0-2.1-0.6-3.8-1.9-5.1c-1.2-1.3-2.8-1.9-4.7-1.9c-1.3,0-2.4,0.3-3.4,0.9
	c-1,0.6-1.8,1.4-2.4,2.4c-0.6,1.1-0.9,2.3-0.9,3.7c0,1.4,0.3,2.6,0.9,3.7c0.6,1.1,1.4,1.9,2.4,2.5
	C519.5,101.5,520.6,101.8,521.9,101.8z M547.1,83.3c3.3,0,5.8,0.8,7.6,2.4c1.8,1.6,2.6,3.9,2.6,7.1V106h-5v-2.7
	c-0.6,1-1.6,1.7-2.8,2.3c-1.2,0.5-2.6,0.8-4.3,0.8c-1.7,0-3.2-0.3-4.4-0.8c-1.3-0.6-2.2-1.4-2.9-2.4c-0.7-1-1-2.2-1-3.5
	c0-2,0.7-3.6,2.2-4.8c1.5-1.2,3.9-1.8,7.1-1.8h5.8v-0.3c0-1.6-0.5-2.8-1.4-3.6c-0.9-0.8-2.3-1.3-4.2-1.3c-1.3,0-2.5,0.2-3.7,0.6
	c-1.2,0.4-2.2,0.9-3.1,1.6l-2.1-3.8c1.2-0.9,2.6-1.6,4.2-2.1C543.5,83.6,545.3,83.3,547.1,83.3z M546.4,102.5c1.3,0,2.5-0.3,3.5-0.9
	c1-0.6,1.8-1.5,2.2-2.6v-2.6h-5.4c-3,0-4.5,1-4.5,3c0,1,0.4,1.7,1.1,2.3C544,102.2,545.1,102.5,546.4,102.5z M584.6,83.6l-10.5,24.2
	c-1,2.4-2.2,4.1-3.6,5.1c-1.4,1-3.1,1.5-5.1,1.5c-1.1,0-2.2-0.2-3.3-0.5c-1.1-0.4-2-0.9-2.7-1.5l2.1-3.9c0.5,0.5,1.1,0.9,1.8,1.1
	c0.7,0.3,1.4,0.4,2.1,0.4c0.9,0,1.7-0.2,2.3-0.7c0.6-0.5,1.2-1.3,1.7-2.4l0.4-0.9L560,83.6h5.5l7.1,16.6l7.1-16.6H584.6z
	 M595.8,83.3c3.3,0,5.8,0.8,7.6,2.4c1.8,1.6,2.6,3.9,2.6,7.1V106h-5v-2.7c-0.6,1-1.6,1.7-2.8,2.3c-1.2,0.5-2.6,0.8-4.3,0.8
	c-1.7,0-3.2-0.3-4.4-0.8c-1.3-0.6-2.2-1.4-2.9-2.4c-0.7-1-1-2.2-1-3.5c0-2,0.7-3.6,2.2-4.8c1.5-1.2,3.9-1.8,7.1-1.8h5.8v-0.3
	c0-1.6-0.5-2.8-1.4-3.6c-0.9-0.8-2.3-1.3-4.2-1.3c-1.3,0-2.5,0.2-3.7,0.6c-1.2,0.4-2.2,0.9-3.1,1.6l-2.1-3.8
	c1.2-0.9,2.6-1.6,4.2-2.1C592.2,83.6,593.9,83.3,595.8,83.3z M595.1,102.5c1.3,0,2.5-0.3,3.5-0.9c1-0.6,1.8-1.5,2.2-2.6v-2.6h-5.4
	c-3,0-4.5,1-4.5,3c0,1,0.4,1.7,1.1,2.3C592.7,102.2,593.7,102.5,595.1,102.5z M617.7,86.8c1.5-2.4,4.2-3.5,8-3.5v5
	c-0.4-0.1-0.9-0.1-1.2-0.1c-2,0-3.6,0.6-4.8,1.8c-1.1,1.2-1.7,2.9-1.7,5.1V106h-5.3V83.6h5V86.8z M638.6,83.3c3.3,0,5.8,0.8,7.6,2.4
	c1.8,1.6,2.6,3.9,2.6,7.1V106h-5v-2.7c-0.6,1-1.6,1.7-2.8,2.3c-1.2,0.5-2.6,0.8-4.3,0.8c-1.7,0-3.1-0.3-4.4-0.8
	c-1.3-0.6-2.2-1.4-2.9-2.4c-0.7-1-1-2.2-1-3.5c0-2,0.7-3.6,2.2-4.8c1.5-1.2,3.9-1.8,7.1-1.8h5.8v-0.3c0-1.6-0.5-2.8-1.4-3.6
	c-0.9-0.8-2.3-1.3-4.2-1.3c-1.3,0-2.5,0.2-3.7,0.6c-1.2,0.4-2.2,0.9-3.1,1.6l-2.1-3.8c1.2-0.9,2.6-1.6,4.2-2.1
	C635,83.6,636.8,83.3,638.6,83.3z M637.9,102.5c1.3,0,2.5-0.3,3.5-0.9c1-0.6,1.8-1.5,2.2-2.6v-2.6h-5.4c-3,0-4.5,1-4.5,3
	c0,1,0.4,1.7,1.1,2.3C635.5,102.2,636.6,102.5,637.9,102.5z M668.3,83.3c2.8,0,5.1,0.8,6.8,2.5c1.7,1.7,2.6,4.1,2.6,7.4V106h-5.3
	V93.8c0-2-0.5-3.4-1.4-4.4c-0.9-1-2.2-1.5-3.9-1.5c-1.9,0-3.5,0.6-4.6,1.8c-1.1,1.1-1.7,2.8-1.7,5V106h-5.3V83.6h5v2.9
	c0.9-1,2-1.8,3.3-2.4C665.2,83.6,666.6,83.3,668.3,83.3z"/>
<g>
	<circle class="st2" cx="1004.6" cy="94.9" r="44"/>
</g>
<g>
	<path class="st3" d="M987.5,87c0.7-0.7,1.7-0.8,2.5-0.2l0.2,0.2l15.4,15.7L1021,87c0.7-0.7,1.7-0.8,2.5-0.2l0.2,0.2
		c0.7,0.7,0.7,1.8,0.2,2.6l-0.2,0.2l-16.7,17.1c-0.7,0.7-1.7,0.8-2.5,0.2l-0.2-0.2l-16.7-17.1C986.7,89,986.7,87.8,987.5,87z"/>
</g>
</svg>
