<?xml version="1.0" standalone="no"?>
<!DOCTYPE svg PUBLIC "-//W3C//DTD SVG 20010904//EN"
 "http://www.w3.org/TR/2001/REC-SVG-20010904/DTD/svg10.dtd">
<svg version="1.0" xmlns="http://www.w3.org/2000/svg"
 width="1080.000000pt" height="720.000000pt" viewBox="0 0 1080.000000 720.000000"
 preserveAspectRatio="xMidYMid meet">

<g transform="translate(0.000000,720.000000) scale(0.100000,-0.100000)"
fill="#000000" stroke="none">
<path d="M3795 5774 c-95 -26 -177 -74 -251 -148 -74 -75 -112 -131 -146 -218
-28 -72 -31 -269 -5 -341 34 -96 102 -201 121 -190 6 3 8 2 3 -2 -9 -10 61
-85 79 -85 7 0 15 -7 18 -16 3 -8 10 -12 16 -9 5 3 10 2 10 -4 0 -15 88 -53
102 -45 7 4 8 3 4 -4 -7 -11 8 -16 44 -14 8 0 18 -5 22 -11 9 -15 225 -17 236
-2 4 6 20 11 36 12 16 0 31 5 35 10 3 4 15 9 26 11 66 11 194 121 261 222 110
170 116 384 16 560 -37 67 -149 177 -217 215 -130 72 -281 94 -410 59z m336
-221 c35 -32 70 -65 80 -73 9 -8 35 -32 57 -53 l42 -39 0 -194 c0 -243 -7
-265 -113 -323 -35 -20 -53 -21 -261 -21 -213 0 -226 1 -266 23 -24 12 -58 40
-76 61 -33 38 -34 42 -34 128 0 85 1 88 25 94 40 10 52 -9 57 -89 3 -39 11
-82 19 -95 23 -37 69 -44 296 -40 208 3 212 3 237 27 l26 24 0 191 0 191 -67
62 c-47 43 -69 57 -71 47 -5 -20 25 -64 43 -64 27 0 65 -23 65 -40 0 -38 -56
-53 -103 -27 -67 37 -97 84 -97 152 l0 45 -112 0 c-121 0 -173 -10 -209 -39
-21 -16 -23 -29 -26 -117 -5 -141 -7 -146 -46 -142 l-32 3 -3 118 c-2 110 -1
119 22 153 56 82 88 92 303 93 l182 1 62 -57z m-91 -290 c0 -9 -12 -29 -27
-45 l-26 -28 26 -20 c32 -25 35 -55 8 -70 -23 -12 -50 -3 -72 24 -16 19 -16
19 -45 -1 -39 -27 -56 -32 -76 -21 -26 13 -22 43 7 66 31 25 31 29 -1 54 -35
28 -29 62 12 66 20 2 36 -4 49 -18 22 -24 38 -25 56 -4 30 36 89 34 89 -3z"/>
<path d="M8838 5783 c-10 -2 -18 -8 -18 -12 0 -5 -12 -8 -27 -8 -15 0 -29 -6
-31 -12 -2 -6 -8 -9 -12 -6 -15 9 -107 -46 -166 -98 -84 -76 -161 -197 -147
-234 4 -11 2 -14 -5 -9 -7 4 -14 -4 -18 -21 -3 -15 -10 -44 -15 -63 -13 -52
-11 -120 6 -195 18 -76 61 -175 76 -175 6 0 8 -4 5 -8 -14 -23 159 -194 178
-175 3 3 6 1 6 -5 0 -17 76 -53 96 -45 12 4 15 3 10 -5 -4 -7 0 -13 11 -14 33
-2 38 -3 53 -13 8 -5 54 -11 101 -13 66 -3 95 0 119 11 17 9 37 14 44 11 7 -3
21 2 29 11 9 8 20 15 24 14 21 -4 33 2 27 13 -4 7 -3 8 4 4 15 -9 93 34 85 47
-3 6 -1 7 5 3 16 -9 86 57 136 128 61 88 89 152 90 213 0 29 4 47 8 40 4 -7 8
24 8 68 0 44 -4 74 -8 68 -5 -8 -8 7 -8 35 0 55 -67 207 -86 196 -7 -4 -8 -3
-4 4 17 28 -187 202 -239 206 -13 0 -21 4 -18 9 4 7 -16 11 -47 9 -8 0 -18 5
-22 11 -7 12 -212 20 -250 10z m-23 -260 c9 -22 16 -23 105 -23 71 0 108 -5
148 -20 30 -12 76 -20 111 -20 44 0 64 -5 82 -21 23 -20 24 -25 24 -174 0
-149 -1 -154 -24 -174 -20 -17 -37 -21 -100 -21 -48 0 -87 6 -105 15 -15 8
-35 15 -42 15 -8 0 -14 5 -14 10 0 6 -37 10 -90 10 l-90 0 0 -55 c0 -48 2 -55
20 -55 23 0 43 -32 34 -55 -5 -13 -21 -15 -98 -13 l-91 3 0 30 c0 23 5 31 23
33 l22 3 0 251 c0 222 2 254 17 270 22 24 55 19 68 -9z"/>
<path d="M8820 5310 l0 -120 94 0 c72 0 105 -5 141 -20 26 -11 69 -20 96 -20
l49 0 0 115 0 115 -55 0 c-30 0 -63 4 -73 9 -62 33 -96 41 -171 41 l-81 0 0
-120z"/>
<path d="M8441 4434 c0 -11 3 -14 6 -6 3 7 2 16 -1 19 -3 4 -6 -2 -5 -13z"/>
<path d="M4100 4236 c0 -9 5 -16 10 -16 6 0 10 4 10 9 0 6 -4 13 -10 16 -5 3
-10 -1 -10 -9z"/>
<path d="M3455 4200 c3 -5 12 -7 20 -3 21 7 19 13 -6 13 -11 0 -18 -4 -14 -10z"/>
<path d="M3588 4163 c6 -2 18 -2 25 0 6 3 1 5 -13 5 -14 0 -19 -2 -12 -5z"/>
<path d="M800 3930 c-519 -6 -507 -4 -583 -78 -85 -82 -118 -194 -85 -288 22
-63 69 -130 106 -149 17 -10 32 -26 32 -35 0 -33 87 -50 255 -50 83 0 165 5
181 10 19 7 801 12 2269 14 1232 3 2263 4 2290 3 28 -1 1137 -2 2465 -2 l2415
0 55 27 c234 114 230 421 -8 531 l-47 22 -2407 2 c-1487 2 -2408 -1 -2408 -6
0 -6 -35 -7 -87 -3 -119 9 -2434 9 -2501 0 -33 -4 -50 -4 -47 2 6 10 -1001 10
-1895 0z m-2 -206 c25 -17 29 -52 7 -80 -19 -25 -19 -34 0 -34 8 0 15 5 15 11
0 16 67 106 83 112 8 3 20 2 26 -3 10 -6 9 -13 -5 -35 -13 -21 -14 -26 -3 -23
14 3 59 -35 59 -49 -1 -5 -11 -21 -24 -36 -23 -29 -56 -29 -56 -1 0 23 -63 18
-78 -6 -9 -14 -23 -20 -51 -20 -81 0 -92 26 -36 80 43 42 44 51 3 48 -41 -4
-52 27 -16 41 34 14 51 13 76 -5z m369 -54 c29 -58 33 -62 33 -34 0 46 28 66
86 62 l49 -3 3 -69 c2 -56 0 -70 -15 -82 -27 -20 -99 -18 -115 4 -7 9 -20 18
-28 20 -8 2 -20 10 -26 18 -16 21 -57 17 -77 -7 -20 -22 -40 -21 -45 3 -2 8
11 44 28 81 45 98 61 99 107 7z m701 54 c25 -17 28 -50 7 -78 -19 -25 -19 -36
-1 -36 9 0 16 16 20 44 9 55 23 74 61 82 42 8 73 -19 81 -72 5 -36 2 -45 -23
-74 -24 -27 -34 -32 -56 -26 -14 3 -32 13 -41 21 -19 20 -23 19 -29 -5 -4 -17
-14 -20 -56 -20 -39 0 -53 4 -60 18 -8 15 -3 26 29 57 49 48 50 59 6 51 -24
-5 -35 -2 -39 7 -15 40 57 62 101 31z m277 -8 c23 -23 24 -23 37 -5 7 10 27
22 45 25 26 5 37 1 59 -21 23 -23 26 -32 21 -72 -3 -33 -12 -52 -28 -64 -31
-24 -45 -23 -78 0 -27 19 -27 19 -39 0 -11 -17 -22 -19 -65 -17 -67 4 -74 28
-22 78 43 42 44 54 5 45 -37 -8 -54 20 -25 41 28 21 63 17 90 -10z m1797 2 c2
-18 11 -24 38 -28 62 -9 76 -87 19 -108 -11 -5 -36 -6 -55 -4 l-34 4 0 79 c0
62 3 79 14 79 8 0 16 -10 18 -22z m-2272 -2 c0 -8 7 -16 15 -20 17 -6 21 -36
5 -36 -17 0 -11 -42 8 -56 16 -12 16 -14 0 -30 -27 -28 -66 -2 -74 48 -7 42
-18 55 -30 36 -4 -6 -2 -14 4 -16 7 -2 12 -16 12 -32 0 -39 -46 -59 -89 -37
-20 10 -33 11 -40 4 -16 -16 -74 -17 -98 -1 -19 12 -23 23 -23 70 0 52 1 55
23 52 18 -2 23 -10 25 -45 3 -44 22 -61 22 -20 0 42 12 67 31 67 11 0 22 -7
26 -15 5 -14 7 -14 23 0 12 11 32 16 60 14 31 -3 44 1 51 14 12 20 49 23 49 3z
m1603 8 c3 -3 1 -16 -5 -29 -8 -17 -6 -29 8 -50 18 -27 18 -28 -10 -52 -22
-19 -35 -23 -60 -17 -17 3 -35 10 -40 15 -12 11 19 23 38 16 8 -3 22 0 33 8
17 13 16 14 -9 24 -29 11 -36 25 -18 36 17 10 11 25 -9 25 -21 0 -34 13 -24
24 8 8 88 8 96 0z m227 -13 c31 -25 33 -82 3 -112 -29 -30 -86 -29 -118 1 -74
69 33 173 115 111z m931 9 c25 -14 24 -52 -1 -75 -11 -10 -20 -22 -20 -27 0
-4 9 -8 20 -8 11 0 20 -7 20 -15 0 -12 -13 -15 -55 -15 -30 0 -55 3 -55 6 0 4
16 24 36 46 41 46 40 64 -5 60 -33 -2 -39 6 -19 26 15 15 53 16 79 2z m149
-12 c58 -63 -17 -170 -83 -117 -32 24 -37 80 -11 117 20 29 67 29 94 0z m128
10 c18 -18 15 -52 -8 -81 l-20 -26 20 -3 c38 -6 26 -23 -19 -26 -73 -5 -80 3
-38 46 45 46 50 77 12 68 -33 -9 -50 1 -34 20 14 17 71 18 87 2z m142 -10 c30
-33 27 -91 -7 -117 -61 -49 -130 28 -92 102 23 43 66 50 99 15z m3080 -65 c0
-66 -2 -74 -17 -71 -14 2 -19 15 -21 58 -2 30 -8 58 -14 61 -21 13 -1 37 26
32 25 -5 26 -8 26 -80z m135 62 c27 -26 32 -63 14 -98 -15 -28 -28 -37 -58
-37 -39 0 -61 27 -61 76 0 34 5 47 26 63 34 27 50 26 79 -4z m305 -61 c0 -67
-2 -74 -20 -74 -18 0 -20 7 -20 60 0 47 -3 60 -15 60 -18 0 -20 27 -3 32 7 3
23 2 35 0 21 -4 23 -9 23 -78z m113 66 c28 -22 27 -48 -4 -76 -26 -23 -24 -34
6 -34 16 0 25 -6 25 -15 0 -12 -13 -15 -60 -15 -71 0 -76 11 -25 60 19 19 35
40 35 47 0 8 -13 13 -35 13 -39 0 -43 6 -17 26 24 19 45 17 75 -6z m236 -9
c17 -16 31 -37 31 -46 0 -15 5 -13 25 9 25 27 72 35 92 15 8 -8 15 -6 25 10
16 26 33 27 61 0 20 -19 21 -21 5 -30 -22 -12 -24 -59 -3 -59 8 0 15 -7 15
-15 0 -18 -43 -20 -58 -2 -6 6 -12 25 -14 42 -3 26 -7 29 -40 31 -46 1 -61 -8
-56 -32 2 -13 11 -18 28 -17 41 3 54 -5 40 -22 -26 -31 -110 -4 -110 35 0 6
-4 10 -10 10 -5 0 -10 -6 -10 -14 0 -22 -40 -46 -78 -46 -62 0 -105 75 -69
121 35 46 84 50 126 10z m451 6 c0 -18 5 -22 32 -22 24 0 36 -6 47 -27 14 -25
14 -31 1 -55 -14 -24 -22 -28 -68 -30 l-52 -2 0 79 c0 73 2 80 20 80 14 0 20
-7 20 -23z m484 7 c22 -21 20 -57 -4 -79 -27 -24 -25 -35 5 -35 16 0 25 -6 25
-15 0 -12 -13 -15 -60 -15 -71 0 -76 11 -25 60 44 43 46 62 3 58 -38 -4 -50
18 -16 31 34 14 55 13 72 -5z m143 -6 c48 -45 19 -138 -42 -138 -62 0 -88 88
-40 135 30 31 52 31 82 3z m116 11 c43 -23 45 -37 12 -77 -14 -17 -25 -33 -25
-36 0 -3 11 -6 25 -6 16 0 25 -6 25 -15 0 -12 -13 -15 -60 -15 -71 0 -76 11
-25 60 42 40 46 64 11 58 -38 -8 -55 8 -31 26 24 19 40 20 68 5z m151 -10 c20
-16 26 -29 26 -61 0 -50 -22 -78 -61 -78 -64 0 -93 87 -44 135 29 30 45 31 79
4z m-6350 -4 c3 -8 13 -15 22 -15 16 0 16 -1 1 -18 -22 -24 -22 -51 1 -68 15
-12 15 -15 2 -23 -24 -16 -55 11 -58 53 -2 20 -8 36 -13 36 -5 0 -2 11 7 25
19 29 29 31 38 10z m2716 -5 c0 -15 7 -20 25 -20 14 0 34 -9 45 -20 l20 -20
22 20 c30 28 72 26 97 -5 l20 -26 3 23 c2 19 10 24 46 26 39 3 42 1 42 -22 0
-16 -6 -26 -15 -26 -11 0 -15 -11 -15 -39 0 -31 -4 -41 -20 -46 -27 -9 -40 1
-40 31 0 13 -5 24 -11 24 -6 0 -9 -7 -5 -15 7 -19 -20 -45 -48 -45 -13 0 -34
10 -48 23 l-25 24 -23 -24 c-18 -19 -31 -23 -68 -21 -39 3 -47 7 -52 26 l-5
24 -24 -26 c-28 -29 -66 -34 -91 -11 -15 14 -18 14 -30 0 -29 -35 -85 5 -78
57 2 16 -1 22 -12 19 -8 -2 -30 -3 -48 -2 -27 1 -33 -2 -30 -16 3 -13 12 -17
35 -16 39 4 51 -12 27 -38 -24 -26 -63 -24 -94 6 l-26 25 -24 -25 c-35 -37
-90 -35 -124 6 -33 39 -34 82 -1 114 49 49 154 20 156 -43 0 -24 1 -25 9 -7
15 38 36 48 85 41 36 -6 46 -4 51 8 8 22 30 20 54 -4 24 -24 25 -36 6 -43 -9
-4 -12 -14 -9 -26 7 -28 23 -27 23 1 0 63 91 92 129 41 l20 -28 -1 36 c-1 44
7 59 33 59 12 0 19 -7 19 -20z m-663 -19 c-9 -43 -50 -123 -69 -135 -12 -7
-21 -7 -28 0 -8 8 -4 27 14 68 20 44 22 56 10 56 -7 0 -14 -4 -14 -10 0 -5
-11 -10 -25 -10 -21 0 -25 5 -25 30 l0 30 71 0 72 0 -6 -29z m1151 17 c17 -17
15 -64 -3 -82 -20 -19 -19 -23 6 -29 13 -4 20 -12 17 -24 -3 -14 -14 -19 -61
-21 -78 -4 -85 14 -27 73 36 37 41 45 27 51 -10 3 -24 0 -33 -7 -13 -10 -17
-10 -25 2 -12 20 -11 36 4 42 24 10 83 7 95 -5z m153 -20 c24 -39 19 -81 -13
-115 -47 -50 -118 -12 -118 62 0 54 28 85 76 85 28 0 38 -6 55 -32z m123 10
l16 -22 20 22 c31 33 83 30 109 -7 31 -44 24 -96 -18 -128 -43 -33 -111 9
-111 70 -1 29 -2 30 -12 12 -6 -11 -19 -25 -27 -32 -14 -11 -12 -12 12 -13 24
0 28 -4 25 -22 -3 -20 -10 -23 -61 -26 -75 -4 -84 14 -33 67 44 45 47 63 7 55
-33 -7 -49 10 -31 31 20 24 86 19 104 -7z m-3549 -8 c11 -17 -5 -32 -21 -19
-11 9 -17 9 -29 -1 -29 -24 -7 -67 26 -50 21 12 37 -6 21 -22 -27 -27 -102 3
-102 41 0 33 30 61 65 61 19 0 37 -4 40 -10z m227 -7 c39 -35 9 -93 -48 -93
-57 0 -84 52 -47 92 20 22 70 23 95 1z m286 5 c14 -14 16 -58 3 -58 -5 0 -8
-8 -7 -17 1 -15 -7 -18 -44 -18 -39 0 -46 3 -54 27 -7 18 -6 35 2 53 9 20 19
25 50 25 21 0 43 -5 50 -12z m112 2 c0 -5 -9 -14 -20 -20 -14 -8 -20 -21 -20
-45 0 -28 -4 -35 -20 -35 -18 0 -20 7 -20 55 l0 55 40 0 c22 0 40 -4 40 -10z
m4818 -6 c46 -32 15 -104 -45 -104 -28 0 -63 33 -63 60 0 27 35 60 63 60 12 0
33 -7 45 -16z m292 -6 c28 -30 21 -42 -29 -46 -47 -4 -47 -22 0 -22 39 0 34
-24 -5 -28 -40 -5 -76 22 -76 58 0 55 71 80 110 38z m110 6 c0 -7 -9 -18 -20
-24 -14 -8 -20 -21 -20 -46 0 -28 -4 -35 -17 -32 -13 2 -19 15 -21 47 -2 24
-1 49 2 56 6 18 76 17 76 -1z m-1262 -41 c2 -9 -7 -13 -27 -13 -21 0 -31 5
-31 16 0 19 51 16 58 -3z"/>
<path d="M890 3649 c0 -5 5 -7 10 -4 6 3 10 8 10 11 0 2 -4 4 -10 4 -5 0 -10
-5 -10 -11z"/>
<path d="M1110 3650 c0 -5 5 -10 10 -10 6 0 10 5 10 10 0 6 -4 10 -10 10 -5 0
-10 -4 -10 -10z"/>
<path d="M1257 3654 c-14 -14 -7 -35 11 -32 9 2 17 10 17 17 0 16 -18 25 -28
15z"/>
<path d="M1253 3573 c9 -2 23 -2 30 0 6 3 -1 5 -18 5 -16 0 -22 -2 -12 -5z"/>
<path d="M1952 3678 c-16 -16 -15 -43 1 -57 19 -15 27 -4 27 36 0 35 -8 41
-28 21z"/>
<path d="M2224 3675 c-8 -20 4 -65 16 -65 6 0 10 18 10 40 0 40 -15 54 -26 25z"/>
<path d="M2143 3646 c-21 -24 -20 -36 3 -36 6 0 14 14 16 30 3 17 4 30 3 30
-1 0 -11 -11 -22 -24z"/>
<path d="M3963 3663 c-17 -6 -16 -50 1 -56 15 -6 36 11 36 29 0 16 -22 32 -37
27z"/>
<path d="M1490 3620 c0 -19 3 -21 12 -12 9 9 9 15 0 24 -9 9 -12 7 -12 -12z"/>
<path d="M3412 3688 c-7 -7 -12 -21 -12 -33 0 -44 60 -63 80 -26 14 27 13 37
-6 55 -18 19 -45 21 -62 4z"/>
<path d="M4514 3687 c-3 -9 -4 -28 -2 -44 2 -20 8 -28 23 -28 17 0 20 7 20 40
0 30 -4 41 -18 43 -9 2 -20 -3 -23 -11z"/>
<path d="M4784 3687 c-3 -9 -4 -28 -2 -44 2 -20 8 -28 23 -28 17 0 20 7 20 40
0 30 -4 41 -18 43 -9 2 -20 -3 -23 -11z"/>
<path d="M8004 3676 c-10 -26 1 -71 18 -74 20 -4 32 29 24 64 -7 26 -33 33
-42 10z"/>
<path d="M8632 3678 c-17 -17 -15 -53 3 -68 20 -17 62 -5 70 20 14 44 -41 80
-73 48z"/>
<path d="M9174 3646 c-9 -24 4 -48 23 -44 12 2 18 12 18 28 0 29 -32 41 -41
16z"/>
<path d="M9737 3684 c-10 -10 -8 -56 2 -73 5 -8 16 -11 26 -8 22 9 17 80 -5
85 -9 1 -19 0 -23 -4z"/>
<path d="M10007 3684 c-10 -11 -9 -72 2 -78 23 -14 42 7 39 43 -3 34 -24 52
-41 35z"/>
<path d="M5897 3663 c-14 -13 -7 -64 9 -70 20 -8 48 8 52 31 6 29 -41 60 -61
39z"/>
<path d="M6285 3620 c-8 -14 3 -30 21 -30 8 0 14 9 14 20 0 21 -24 28 -35 10z"/>
<path d="M6434 3613 c2 -10 9 -18 17 -18 20 0 17 29 -3 33 -11 2 -16 -3 -14
-15z"/>
<path d="M6588 3593 c7 -3 16 -2 19 1 4 3 -2 6 -13 5 -11 0 -14 -3 -6 -6z"/>
<path d="M6994 3646 c-8 -33 1 -56 21 -56 13 0 15 9 13 37 -4 43 -25 55 -34
19z"/>
<path d="M7270 3631 c0 -30 4 -41 16 -41 11 0 14 9 12 37 -4 52 -28 56 -28 4z"/>
<path d="M3807 3663 c-4 -3 -7 -16 -7 -29 0 -25 22 -38 39 -21 16 16 14 44 -5
51 -19 7 -19 7 -27 -1z"/>
<path d="M4100 3660 c0 -5 7 -10 15 -10 8 0 15 5 15 10 0 6 -7 10 -15 10 -8 0
-15 -4 -15 -10z"/>
<path d="M4108 3608 c9 -9 15 -9 24 0 9 9 7 12 -12 12 -19 0 -21 -3 -12 -12z"/>
<path d="M9024 3646 c-9 -24 4 -48 23 -44 12 2 18 12 18 28 0 29 -32 41 -41
16z"/>
<path d="M9315 3650 c-4 -6 5 -10 20 -10 15 0 24 4 20 10 -3 6 -12 10 -20 10
-8 0 -17 -4 -20 -10z"/>
<path d="M6116 3055 c4 -8 13 -15 21 -15 12 0 12 2 -1 15 -8 8 -17 15 -20 15
-3 0 -3 -7 0 -15z"/>
<path d="M911 2854 c0 -11 3 -14 6 -6 3 7 2 16 -1 19 -3 4 -6 -2 -5 -13z"/>
<path d="M6260 2801 c0 -5 9 -7 20 -4 11 3 20 7 20 9 0 2 -9 4 -20 4 -11 0
-20 -4 -20 -9z"/>
<path d="M1370 2576 c-120 -34 -232 -107 -297 -195 -44 -60 -94 -161 -112
-227 -16 -58 -14 -190 4 -248 8 -27 15 -62 15 -78 0 -15 5 -28 10 -28 6 0 10
-5 10 -10 0 -23 58 -99 124 -162 138 -133 327 -187 500 -142 111 29 184 72
276 164 81 81 107 122 150 235 25 63 40 235 21 235 -5 0 -19 30 -31 68 -62
187 -219 339 -403 388 -63 17 -206 17 -267 0z m347 -298 l103 -103 0 -183 c0
-207 -6 -233 -66 -278 l-37 -29 -216 0 c-238 0 -246 2 -293 68 -29 41 -39 176
-14 196 28 24 46 -3 46 -71 0 -64 18 -111 49 -128 12 -6 99 -10 213 -10 264 1
258 -6 258 247 l0 167 -62 63 c-34 35 -66 63 -70 63 -4 0 -8 -10 -8 -23 0 -28
34 -67 59 -67 10 0 24 -7 31 -16 11 -12 10 -18 -3 -32 -15 -15 -21 -15 -59 -2
-56 20 -82 58 -88 128 l-5 57 -95 3 c-113 4 -160 -8 -194 -49 -24 -28 -26 -38
-26 -123 0 -99 -9 -122 -42 -105 -15 8 -18 22 -18 93 0 109 7 139 39 175 46
52 80 60 246 61 l150 0 102 -102z m-199 -180 c6 -7 12 -26 14 -43 3 -26 7 -30
36 -31 65 -2 60 -54 -4 -54 -31 0 -34 -3 -34 -28 0 -63 -53 -83 -66 -25 -11
50 -13 53 -49 53 -65 0 -59 50 6 53 30 2 34 6 37 32 4 34 18 55 37 55 7 0 17
-6 23 -12z"/>
<path d="M6372 2550 c-275 -74 -457 -312 -439 -576 10 -144 70 -268 180 -371
176 -164 417 -197 635 -87 86 44 201 159 244 245 99 199 69 436 -77 607 -135
157 -359 232 -543 182z m476 -494 c2 -205 -1 -293 -9 -302 -8 -10 -39 -14
-115 -14 l-104 0 20 -32 c14 -23 16 -36 9 -50 -9 -17 -23 -18 -162 -16 l-152
3 -3 26 c-2 14 4 31 12 39 30 24 15 30 -80 30 -52 0 -104 5 -115 10 -18 10
-19 24 -19 300 0 221 3 290 13 293 6 3 167 5 357 4 l345 -2 3 -289z"/>
<path d="M6202 2103 l3 -178 285 0 285 0 3 178 2 177 -290 0 -290 0 2 -177z
m123 72 c0 -27 -3 -30 -30 -30 -21 0 -31 5 -33 18 -6 33 6 49 35 45 24 -3 28
-8 28 -33z m130 0 c0 -27 -3 -30 -30 -30 -21 0 -31 5 -33 18 -6 33 6 49 35 45
24 -3 28 -8 28 -33z m133 -3 c3 -32 2 -33 -30 -30 -22 2 -34 9 -36 21 -6 33 6
49 35 45 24 -2 29 -8 31 -36z m127 3 c0 -25 -4 -31 -26 -33 -29 -3 -41 14 -32
48 4 16 12 20 32 18 22 -2 26 -8 26 -33z m-400 -98 c13 -10 16 -21 11 -41 -5
-22 -11 -27 -34 -24 -30 3 -42 38 -22 64 15 17 21 18 45 1z m133 4 c8 -5 12
-21 10 -37 -3 -25 -7 -29 -33 -29 -24 0 -31 5 -33 24 -3 15 3 30 14 38 21 15
24 16 42 4z m130 0 c8 -5 12 -21 10 -37 -3 -25 -7 -29 -33 -29 -24 0 -31 5
-33 23 -6 39 25 63 56 43z"/>
<path d="M6200 1835 c0 -13 39 -15 290 -15 251 0 290 2 290 15 0 13 -39 15
-290 15 -251 0 -290 -2 -290 -15z"/>
<path d="M6447 1734 c-17 -17 -4 -24 44 -24 36 0 49 4 47 13 -5 13 -79 22 -91
11z"/>
<path d="M2110 2058 c0 -19 2 -20 10 -8 13 19 13 30 0 30 -5 0 -10 -10 -10
-22z"/>
</g>
</svg>
