<?xml version="1.0" standalone="no"?>
<!DOCTYPE svg PUBLIC "-//W3C//DTD SVG 20010904//EN"
 "http://www.w3.org/TR/2001/REC-SVG-20010904/DTD/svg10.dtd">
<svg version="1.0" xmlns="http://www.w3.org/2000/svg"
 width="1080.000000pt" height="720.000000pt" viewBox="0 0 1080.000000 720.000000"
 preserveAspectRatio="xMidYMid meet">

<g transform="translate(0.000000,720.000000) scale(0.100000,-0.100000)"
fill="#000000" stroke="none">
<path d="M4013 6105 c-196 -43 -373 -210 -435 -410 -77 -250 49 -538 291 -664
138 -72 256 -87 395 -51 111 28 190 73 271 155 234 233 234 577 0 810 -143
143 -333 201 -522 160z m284 -207 c21 -18 80 -70 131 -117 l92 -83 0 -187 c0
-102 -5 -202 -10 -222 -14 -51 -74 -106 -134 -124 -59 -18 -394 -21 -466 -4
-102 23 -151 83 -158 196 -5 77 5 103 39 103 27 0 39 -31 39 -102 0 -43 5 -71
16 -87 32 -45 68 -51 294 -51 310 0 300 -9 299 270 l0 195 -77 68 c-74 65 -77
66 -80 41 -5 -37 19 -66 64 -79 32 -9 39 -15 39 -35 0 -34 -42 -38 -98 -11
-56 27 -77 64 -77 135 l0 56 -145 0 c-217 0 -235 -14 -235 -177 0 -79 -3 -105
-16 -117 -18 -19 -20 -19 -45 -6 -17 10 -19 22 -19 112 0 83 4 110 21 145 43
89 109 111 331 112 l157 1 38 -32z m-217 -314 c30 -35 50 -37 80 -9 31 29 57
30 74 2 9 -16 6 -23 -22 -44 l-33 -26 32 -33 c20 -21 29 -39 26 -49 -12 -29
-37 -28 -76 3 l-39 31 -18 -20 c-29 -33 -51 -41 -74 -29 -28 15 -25 27 12 61
l31 30 -33 34 c-28 29 -31 37 -20 50 16 19 44 19 60 -1z"/>
<path d="M9195 6105 c-305 -67 -512 -375 -450 -670 48 -229 220 -406 447 -460
86 -20 160 -19 252 5 170 43 311 157 384 311 84 176 84 322 0 497 -113 237
-383 372 -633 317z m-38 -265 c5 -18 14 -20 99 -20 78 0 105 -4 154 -25 43
-18 78 -25 125 -25 103 0 105 -5 105 -199 0 -154 -1 -160 -22 -175 -37 -26
-152 -21 -226 9 -49 20 -79 25 -147 25 l-85 0 0 -59 c0 -57 1 -59 31 -65 26
-5 30 -10 27 -33 -3 -27 -5 -28 -73 -31 -94 -4 -115 2 -115 33 0 20 6 27 30
32 l30 6 0 257 c0 142 3 265 6 274 9 24 55 20 61 -4z"/>
<path d="M9160 5620 l0 -130 104 0 c82 0 113 -4 147 -20 27 -12 66 -20 102
-20 l57 0 0 125 0 125 -55 0 c-36 0 -73 8 -111 25 -47 21 -72 25 -150 25 l-94
0 0 -130z"/>
<path d="M413 4182 c-95 -34 -166 -106 -199 -204 -43 -131 30 -285 169 -353
l52 -25 2515 4 c2982 4 2088 4 5065 0 2855 -5 2567 -14 2667 86 62 62 88 124
88 210 0 108 -78 224 -182 271 l-53 24 -2500 -1 c-1375 -1 -2527 -1 -2560 -1
-164 1 -2495 1 -2525 0 -19 -1 -586 1 -1260 3 -1157 3 -1228 2 -1277 -14z
m488 -202 c28 -15 24 -59 -8 -92 l-27 -28 32 0 c18 0 32 5 32 10 0 23 83 120
102 120 21 0 19 -5 -19 -56 -27 -36 -28 -44 -8 -44 8 0 15 7 15 15 0 8 9 15
20 15 11 0 20 -7 20 -15 0 -8 5 -15 10 -15 6 0 10 -7 10 -15 0 -8 -4 -15 -10
-15 -5 0 -10 -7 -10 -15 0 -8 -9 -15 -20 -15 -11 0 -20 7 -20 15 0 11 -12 15
-45 15 -33 0 -45 -4 -45 -15 0 -12 -13 -15 -60 -15 -71 0 -76 11 -25 60 45 44
45 61 0 58 -43 -3 -56 9 -31 28 23 17 60 18 87 4z m384 -70 c27 -63 30 -76 17
-79 -9 -2 -21 4 -27 13 -16 21 -85 22 -85 1 0 -9 -9 -15 -24 -15 l-25 0 37 80
c46 104 61 104 107 0z m716 70 c28 -15 24 -59 -8 -92 l-27 -28 32 0 c22 0 32
-5 32 -15 0 -12 -13 -15 -60 -15 -71 0 -76 11 -25 60 45 44 45 61 0 58 -43 -3
-56 9 -31 28 23 17 60 18 87 4z m138 0 c10 -5 24 -23 31 -39 36 -88 -76 -164
-120 -81 -38 70 25 155 89 120z m142 0 c28 -15 24 -59 -8 -92 l-27 -28 32 0
c22 0 32 -5 32 -15 0 -12 -13 -15 -60 -15 -71 0 -76 11 -25 60 45 44 45 61 0
58 -43 -3 -56 9 -31 28 23 17 60 18 87 4z m149 -10 c43 -43 33 -118 -20 -140
-49 -20 -90 16 -90 81 0 65 68 101 110 59z m1262 -8 c28 -29 27 -83 -2 -112
-42 -42 -132 -17 -145 40 -16 76 91 129 147 72z m458 4 c0 -19 4 -22 25 -18
33 6 65 -23 65 -59 0 -41 -24 -59 -81 -59 l-49 0 0 80 c0 73 2 80 20 80 14 0
20 -7 20 -24z m500 6 c27 -22 21 -51 -18 -87 l-27 -25 33 0 c22 0 32 -5 32
-15 0 -12 -13 -15 -60 -15 -33 0 -60 4 -60 8 0 4 18 26 40 47 22 21 40 45 40
52 0 18 -29 28 -42 15 -12 -12 -38 -5 -38 9 0 11 36 27 61 28 9 1 27 -7 39
-17z m145 -7 c48 -47 24 -135 -37 -135 -45 0 -68 25 -68 75 0 76 57 109 105
60z m133 9 c31 -21 28 -46 -10 -83 l-32 -31 32 0 c22 0 32 -5 32 -15 0 -12
-13 -15 -60 -15 -33 0 -60 4 -60 8 0 4 18 26 40 47 22 21 40 45 40 52 0 18
-29 28 -42 15 -12 -12 -38 -5 -38 9 0 11 36 27 60 28 9 1 26 -6 38 -15z m147
-9 c48 -47 24 -135 -37 -135 -46 0 -68 25 -68 76 0 34 5 47 26 63 34 27 50 26
79 -4z m4455 1 c0 -21 5 -25 31 -24 37 1 59 -22 59 -62 0 -40 -27 -59 -82 -58
l-48 1 0 84 c0 76 2 83 20 83 15 0 20 -7 20 -24z m-7730 -1 c0 -8 7 -15 15
-15 8 0 15 -7 15 -15 0 -8 -7 -15 -15 -15 -10 0 -15 -10 -15 -30 0 -20 5 -30
15 -30 18 0 20 -29 3 -31 -44 -4 -58 10 -58 59 0 17 -4 32 -10 32 -5 0 -10 7
-10 15 0 8 5 15 10 15 6 0 10 7 10 15 0 8 9 15 20 15 11 0 20 -7 20 -15z
m1660 8 c0 -5 -7 -17 -15 -27 -13 -17 -12 -22 6 -44 17 -22 18 -28 6 -46 -15
-22 -54 -31 -93 -22 -35 9 -19 31 23 31 20 0 38 6 40 13 3 6 -1 12 -9 12 -7 0
-19 4 -27 9 -12 8 -12 13 3 35 16 26 16 26 -14 26 -16 0 -30 5 -30 10 0 6 25
10 55 10 30 0 55 -3 55 -7z m4795 -73 c0 -63 -3 -75 -17 -78 -16 -3 -18 5 -18
62 0 52 -3 66 -15 66 -8 0 -15 7 -15 16 0 11 8 14 33 12 l32 -3 0 -75z m140
60 c24 -27 25 -93 1 -119 -57 -63 -145 25 -105 102 7 12 17 25 23 29 21 14 63
8 81 -12z m310 -13 c11 -58 2 -121 -17 -125 -16 -3 -18 5 -18 62 0 52 -3 66
-15 66 -8 0 -15 7 -15 15 0 10 10 15 30 15 25 0 30 -5 35 -33z m123 21 c19
-19 14 -54 -14 -87 l-26 -31 31 0 c21 0 31 -5 31 -15 0 -12 -13 -15 -60 -15
-71 0 -76 11 -25 60 19 19 35 43 35 53 0 16 -5 18 -34 13 -38 -7 -56 7 -29 23
25 14 76 14 91 -1z m240 -8 c33 -31 38 -67 15 -98 -40 -54 -106 -54 -146 0
-17 22 -18 31 -8 58 6 18 19 39 28 46 27 20 86 17 111 -6z m966 4 c24 -23 20
-44 -16 -81 l-32 -33 32 0 c22 0 32 -5 32 -15 0 -11 -13 -15 -54 -15 -30 0
-58 5 -61 10 -4 6 12 29 35 51 44 44 47 65 9 62 -40 -3 -53 5 -39 22 16 20 74
19 94 -1z m146 -4 c45 -45 14 -140 -45 -140 -56 0 -87 85 -49 138 19 28 67 29
94 2z m134 4 c24 -23 20 -44 -16 -81 l-32 -33 32 0 c22 0 32 -5 32 -15 0 -11
-13 -15 -54 -15 -30 0 -58 5 -61 10 -4 6 12 29 35 51 44 44 47 65 9 62 -40 -3
-53 5 -39 22 16 20 74 19 94 -1z m146 -4 c45 -45 14 -140 -45 -140 -56 0 -87
85 -49 138 19 28 67 29 94 2z m-6550 0 c0 -5 7 -10 15 -10 8 0 15 -7 15 -15 0
-8 -7 -15 -15 -15 -24 0 -20 -56 5 -63 30 -8 24 -27 -9 -27 -35 0 -39 5 -43
53 -1 21 -6 37 -10 37 -12 0 -10 19 5 35 14 17 37 20 37 5z m2340 -28 c63 -79
-42 -175 -122 -112 -51 40 -36 122 24 138 46 12 75 4 98 -26z m450 14 c0 -20
5 -24 31 -22 23 1 36 -6 52 -26 17 -23 18 -30 7 -57 -14 -34 -26 -40 -87 -40
l-43 0 0 85 c0 77 2 84 20 84 14 0 20 -7 20 -24z m508 1 c20 -16 14 -56 -14
-82 l-25 -24 28 -3 c17 -2 29 -10 31 -20 3 -16 -5 -18 -57 -18 -53 0 -61 3
-61 18 0 11 16 33 35 51 47 42 47 65 1 57 -36 -7 -54 5 -33 22 26 21 67 21 95
-1z m280 0 c20 -16 14 -56 -14 -82 l-25 -24 28 -3 c17 -2 29 -10 31 -20 3 -16
-5 -18 -57 -18 -52 0 -61 3 -61 18 0 10 16 32 35 49 47 42 47 68 1 59 -36 -7
-54 5 -33 22 26 21 67 21 95 -1z m1802 8 c0 -8 7 -15 15 -15 8 0 15 -7 15 -15
0 -8 -7 -15 -15 -15 -24 0 -19 -51 5 -57 26 -7 26 -33 1 -33 -40 0 -51 11 -51
51 0 21 -4 39 -10 39 -5 0 -10 7 -10 15 0 8 5 15 10 15 6 0 10 7 10 15 0 8 7
15 15 15 8 0 15 -7 15 -15z m-3270 -9 c0 -8 -13 -44 -30 -80 -22 -50 -34 -66
-50 -66 -25 0 -25 2 -1 48 33 65 35 82 12 82 -12 0 -21 -7 -21 -15 0 -8 -9
-15 -20 -15 -16 0 -20 7 -20 30 l0 30 65 0 c49 0 65 -3 65 -14z m1336 -7 c11
-13 19 -35 19 -59 0 -71 -69 -106 -115 -60 -24 24 -27 86 -4 118 20 29 74 30
100 1z m280 0 c11 -13 19 -35 19 -59 0 -71 -69 -106 -115 -60 -24 24 -27 86
-4 118 20 29 74 30 100 1z m-6176 -45 c0 -66 -15 -101 -48 -109 -38 -9 -84 4
-80 23 2 13 12 16 40 14 20 -2 39 1 42 7 5 7 -3 9 -22 5 -56 -11 -93 56 -56
97 12 13 31 18 70 18 l54 -1 0 -54z m60 24 c0 -42 13 -63 34 -55 11 4 16 19
16 47 0 33 3 40 20 40 18 0 20 -7 20 -60 l0 -60 -37 -1 c-78 -3 -84 2 -91 70
-4 47 -3 51 17 51 17 0 21 -6 21 -32z m210 17 c0 -10 -11 -15 -32 -16 l-33 -1
33 -14 c73 -32 44 -80 -46 -75 -17 1 -22 6 -20 19 2 13 12 16 38 15 l35 -3
-35 14 c-62 23 -48 76 21 76 28 0 39 -4 39 -15z m2110 0 c14 -17 1 -25 -40
-22 -20 2 -25 -3 -25 -23 0 -21 5 -25 30 -26 46 -2 48 -3 35 -19 -7 -8 -26
-15 -43 -15 -60 0 -88 59 -47 100 24 24 72 26 90 5z m230 -5 c40 -40 12 -100
-45 -100 -40 0 -65 22 -65 57 0 57 69 84 110 43z m292 3 c10 -9 18 -24 18 -35
0 -15 -8 -18 -46 -18 -29 0 -43 -4 -39 -11 4 -6 21 -9 38 -7 23 2 32 -1 32
-12 0 -19 -56 -26 -85 -10 -25 13 -27 65 -3 92 20 22 61 23 85 1z m118 2 c0
-8 -9 -17 -20 -20 -16 -5 -20 -15 -20 -46 0 -32 -3 -39 -20 -39 -17 0 -20 7
-20 44 0 24 3 51 6 59 7 19 74 21 74 2z m1990 0 c0 -8 7 -15 15 -15 8 0 15 -5
15 -10 0 -6 -7 -13 -15 -16 -9 -4 -15 -19 -15 -35 0 -19 5 -29 15 -29 8 0 15
-7 15 -15 0 -18 -41 -20 -58 -3 -7 7 -12 27 -12 45 0 18 -4 33 -10 33 -5 0
-10 7 -10 15 0 8 5 15 10 15 6 0 10 7 10 15 0 8 9 15 20 15 11 0 20 -7 20 -15z
m2760 -15 c0 -16 -19 -21 -39 -11 -23 13 -45 -8 -39 -36 3 -14 12 -17 42 -15
44 4 46 -17 3 -32 -36 -13 -75 6 -83 40 -13 50 36 90 87 72 16 -5 29 -14 29
-18z m223 2 c23 -20 22 -57 -3 -82 -40 -40 -110 -15 -110 39 0 34 10 48 40 59
28 10 47 6 73 -16z m295 5 c6 -5 12 -20 12 -33 0 -21 -5 -24 -41 -24 -26 0
-38 -4 -33 -11 3 -6 17 -8 29 -5 27 7 44 -12 24 -25 -25 -17 -71 -5 -92 22
-17 24 -18 30 -6 55 20 40 70 50 107 21z m112 4 c0 -10 -9 -21 -20 -24 -16 -4
-20 -14 -20 -47 0 -34 -3 -41 -17 -38 -14 3 -19 15 -21 62 -3 58 -3 58 22 54
14 -3 31 -1 38 3 18 12 18 12 18 -10z m-3475 -14 c26 -19 10 -38 -25 -30 -36
7 -52 -19 -27 -44 13 -14 19 -14 32 -3 22 18 44 -2 25 -25 -30 -36 -110 -1
-110 50 0 26 42 65 69 65 10 0 25 -6 36 -13z m233 -3 c47 -33 17 -114 -43
-114 -35 0 -65 28 -65 61 0 57 60 87 108 53z m297 -9 c40 -39 33 -55 -22 -55
-35 0 -44 -3 -33 -10 8 -5 23 -7 32 -4 26 8 42 -5 27 -22 -15 -19 -59 -18 -87
2 -46 32 -17 114 41 114 10 0 29 -11 42 -25z m115 3 c0 -10 -6 -18 -14 -18
-10 0 -16 -14 -18 -42 -2 -35 -7 -43 -23 -43 -23 0 -31 36 -21 91 6 29 10 32
41 31 27 -1 35 -5 35 -19z m1530 -23 c0 -10 -10 -15 -30 -15 -20 0 -30 5 -30
15 0 10 10 15 30 15 20 0 30 -5 30 -15z"/>
<path d="M1217 3910 c-4 -15 0 -20 14 -20 21 0 22 1 13 24 -8 22 -21 20 -27
-4z"/>
<path d="M2087 3943 c-10 -9 -8 -55 2 -72 17 -27 41 -4 41 39 0 32 -4 40 -18
40 -10 0 -22 -3 -25 -7z"/>
<path d="M2367 3943 c-10 -9 -8 -55 2 -72 17 -27 41 -4 41 39 0 32 -4 40 -18
40 -10 0 -22 -3 -25 -7z"/>
<path d="M3600 3940 c-23 -23 -24 -33 -10 -61 21 -39 90 -16 90 30 0 14 -37
51 -50 51 -5 0 -19 -9 -30 -20z"/>
<path d="M4154 3906 c-9 -24 3 -46 26 -46 17 0 21 5 18 27 -3 31 -34 44 -44
19z"/>
<path d="M4743 3952 c-19 -12 -25 -56 -10 -76 21 -29 47 -14 47 27 0 37 -18
60 -37 49z"/>
<path d="M5023 3952 c-19 -12 -25 -56 -10 -76 21 -29 47 -14 47 27 0 37 -18
60 -37 49z"/>
<path d="M9532 3883 c2 -20 9 -28 23 -28 14 0 21 8 23 28 3 23 0 27 -23 27
-23 0 -26 -4 -23 -27z"/>
<path d="M8326 3934 c-11 -28 -6 -61 10 -75 14 -11 18 -10 30 6 17 22 18 40 4
66 -13 23 -36 25 -44 3z"/>
<path d="M8974 3929 c-17 -19 -17 -23 -3 -47 10 -18 23 -27 39 -27 16 0 29 9
39 27 14 24 14 28 -3 47 -11 12 -27 21 -36 21 -9 0 -25 -9 -36 -21z"/>
<path d="M10114 3937 c-3 -8 -4 -30 -2 -49 2 -25 8 -33 23 -33 17 0 20 7 20
45 0 35 -4 45 -18 48 -9 2 -20 -3 -23 -11z"/>
<path d="M10394 3937 c-3 -8 -4 -30 -2 -49 2 -25 8 -33 23 -33 17 0 20 7 20
45 0 35 -4 45 -18 48 -9 2 -20 -3 -23 -11z"/>
<path d="M6151 3916 c-7 -8 -11 -27 -9 -43 2 -22 9 -29 31 -31 50 -6 75 38 41
72 -19 20 -48 20 -63 2z"/>
<path d="M6703 3874 c-3 -8 2 -23 11 -32 14 -15 18 -15 31 -1 9 9 13 23 9 32
-8 21 -43 22 -51 1z"/>
<path d="M7287 3924 c-12 -12 -8 -71 6 -82 22 -19 39 2 35 44 -3 37 -23 56
-41 38z"/>
<path d="M7567 3924 c-12 -12 -8 -71 6 -82 22 -19 39 2 35 44 -3 37 -23 56
-41 38z"/>
<path d="M1364 3905 c-8 -20 4 -35 26 -35 23 0 32 13 24 34 -8 20 -43 21 -50
1z"/>
<path d="M3997 3906 c-10 -26 4 -47 27 -44 15 2 21 10 21 28 0 29 -38 41 -48
16z"/>
<path d="M4295 3910 c-4 -6 7 -10 25 -10 18 0 29 4 25 10 -3 6 -15 10 -25 10
-10 0 -22 -4 -25 -10z"/>
<path d="M9376 3894 c-9 -22 17 -49 39 -40 10 3 15 15 13 28 -4 29 -42 37 -52
12z"/>
<path d="M9685 3910 c-3 -5 3 -10 15 -10 12 0 18 5 15 10 -3 6 -10 10 -15 10
-5 0 -12 -4 -15 -10z"/>
<path d="M6550 3866 c0 -13 6 -26 13 -29 22 -7 37 4 37 29 0 19 -5 24 -25 24
-20 0 -25 -5 -25 -24z"/>
<path d="M6855 3890 c-4 -6 6 -10 22 -10 22 0 25 2 13 10 -19 12 -27 12 -35 0z"/>
<path d="M1491 2764 c-201 -54 -375 -232 -422 -434 -69 -294 133 -614 432
-685 195 -46 382 9 530 155 112 110 164 222 175 375 19 263 -174 522 -441 590
-74 19 -202 18 -274 -1z m366 -306 l103 -103 0 -195 c0 -183 -2 -197 -23 -234
-14 -25 -39 -48 -66 -63 -42 -22 -54 -23 -235 -23 -164 0 -197 3 -231 19 -72
33 -105 92 -105 188 0 57 8 73 36 73 23 0 24 -3 24 -60 0 -33 6 -76 14 -94 26
-63 38 -66 259 -66 l199 0 34 34 34 34 0 184 0 184 -70 69 -70 69 0 -33 c0
-38 24 -71 51 -71 28 0 52 -29 38 -46 -15 -18 -43 -18 -83 1 -45 22 -66 62
-66 129 l0 56 -120 0 c-189 0 -213 -19 -220 -178 -4 -94 -7 -107 -24 -110 -28
-6 -36 15 -36 104 0 119 22 170 95 215 26 16 51 19 195 19 l165 0 102 -102z
m-203 -194 c3 -9 6 -29 6 -44 0 -27 3 -29 43 -32 34 -2 42 -7 42 -23 0 -16 -8
-21 -42 -23 -41 -3 -43 -4 -43 -36 0 -37 -21 -61 -45 -52 -10 3 -15 19 -15 45
l0 40 -47 3 c-40 3 -48 6 -48 23 0 16 8 21 45 25 45 5 45 5 48 48 3 36 6 42
27 42 12 0 26 -7 29 -16z"/>
<path d="M6640 2765 c-188 -53 -330 -180 -402 -360 -30 -73 -32 -89 -33 -195
0 -95 4 -127 23 -182 59 -171 199 -311 370 -370 96 -33 258 -33 354 0 146 51
273 162 338 297 80 168 82 329 4 490 -68 142 -192 254 -335 305 -84 29 -241
36 -319 15z m500 -224 c6 -12 10 -126 10 -300 0 -241 -2 -282 -16 -295 -12
-13 -38 -16 -120 -16 -57 0 -104 -3 -104 -7 0 -5 7 -17 15 -27 20 -26 19 -62
-1 -70 -20 -8 -278 -8 -298 0 -20 8 -21 44 -1 70 8 10 15 22 15 27 0 4 -46 7
-102 7 -57 0 -110 5 -118 10 -13 8 -15 54 -18 294 -2 191 1 292 8 306 10 19
20 20 365 20 340 0 355 -1 365 -19z"/>
<path d="M6470 2305 l0 -185 305 0 305 0 0 185 0 185 -305 0 -305 0 0 -185z
m135 70 c0 -27 -4 -30 -32 -33 -32 -3 -33 -2 -33 33 0 35 1 36 33 33 28 -3 32
-6 32 -33z m135 -1 c0 -34 -1 -35 -32 -32 -54 5 -53 68 2 68 28 0 30 -3 30
-36z m135 1 c0 -27 -4 -30 -32 -33 -32 -3 -33 -2 -33 33 0 35 1 36 33 33 28
-3 32 -6 32 -33z m135 -1 c0 -34 -1 -35 -32 -32 -54 5 -53 68 2 68 28 0 30 -3
30 -36z m-412 -93 c8 -5 12 -21 10 -37 -2 -25 -8 -29 -35 -32 -31 -3 -33 -2
-33 31 0 18 3 37 7 40 9 9 35 8 51 -2z m140 -34 c3 -38 3 -38 -30 -35 -26 2
-34 8 -36 26 -5 30 16 54 42 50 16 -2 22 -11 24 -41z m132 29 c6 -8 10 -25 8
-38 -2 -18 -10 -24 -35 -26 -31 -3 -33 -2 -33 31 0 18 3 37 7 40 11 12 40 8
53 -7z"/>
<path d="M6470 2025 c0 -13 41 -15 305 -15 264 0 305 2 305 15 0 13 -41 15
-305 15 -264 0 -305 -2 -305 -15z"/>
<path d="M6726 1915 c-4 -12 5 -15 49 -15 44 0 53 3 49 15 -4 10 -20 15 -49
15 -29 0 -45 -5 -49 -15z"/>
</g>
</svg>
